<?xml version="1.0" encoding="UTF-8" standalone="no"?>
<!-- Created with Inkscape (http://www.inkscape.org/) -->

<svg
   version="1.1"
   id="svg1"
   width="953.48145"
   height="1254.7839"
   viewBox="0 0 953.48143 1254.7839"
   sodipodi:docname="logo_rokku_final.pdf"
   xmlns:inkscape="http://www.inkscape.org/namespaces/inkscape"
   xmlns:sodipodi="http://sodipodi.sourceforge.net/DTD/sodipodi-0.dtd"
   xmlns="http://www.w3.org/2000/svg"
   xmlns:svg="http://www.w3.org/2000/svg">
  <defs
     id="defs1">
    <clipPath
       clipPathUnits="userSpaceOnUse"
       id="clipPath834">
      <path
         d="M 0,1080 H 1080 V 0 H 0 Z"
         transform="translate(-388.24741,-855.46392)"
         id="path834" />
    </clipPath>
    <clipPath
       clipPathUnits="userSpaceOnUse"
       id="clipPath835">
      <path
         d="M 203.308,922.044 H 384.077 V 767.578 H 203.308 Z"
         transform="translate(-266.20351,-870.10852)"
         id="path835" />
    </clipPath>
    <clipPath
       clipPathUnits="userSpaceOnUse"
       id="clipPath837">
      <path
         d="M 0,1080 H 1080 V 0 H 0 Z"
         transform="matrix(1.3333333,0,0,-1.3333333,6193.52,1440)"
         id="path837" />
    </clipPath>
    <clipPath
       clipPathUnits="userSpaceOnUse"
       id="clipPath839">
      <path
         d="M 0,1080 H 1080 V 0 H 0 Z"
         transform="translate(-307.74451,-902.01132)"
         id="path839" />
    </clipPath>
    <clipPath
       clipPathUnits="userSpaceOnUse"
       id="clipPath841">
      <path
         d="M 0,1080 H 1080 V 0 H 0 Z"
         transform="translate(-689.76504,-855.46392)"
         id="path841" />
    </clipPath>
    <clipPath
       clipPathUnits="userSpaceOnUse"
       id="clipPath842">
      <path
         d="M 691.735,923.335 H 872.503 V 768.869 H 691.735 Z"
         transform="translate(-809.60785,-871.39952)"
         id="path842" />
    </clipPath>
    <clipPath
       clipPathUnits="userSpaceOnUse"
       id="clipPath844">
      <path
         d="M 0,1080 H 1080 V 0 H 0 Z"
         transform="matrix(1.3333333,0,0,-1.3333333,6193.52,1440)"
         id="path844" />
    </clipPath>
    <clipPath
       clipPathUnits="userSpaceOnUse"
       id="clipPath846">
      <path
         d="M 0,1080 H 1080 V 0 H 0 Z"
         transform="translate(-788.10879,-727.51132)"
         id="path846" />
    </clipPath>
    <clipPath
       clipPathUnits="userSpaceOnUse"
       id="clipPath848">
      <path
         d="M 0,1080 H 1080 V 0 H 0 Z"
         transform="translate(-834.7435,-697.58111)"
         id="path848" />
    </clipPath>
    <clipPath
       clipPathUnits="userSpaceOnUse"
       id="clipPath849">
      <path
         d="M 238.102,738.441 H 444.688 V 433.654 H 238.102 Z"
         transform="translate(-283.30313,-738.44102)"
         id="path849" />
    </clipPath>
    <clipPath
       clipPathUnits="userSpaceOnUse"
       id="clipPath851">
      <path
         d="M 0,1080 H 1080 V 0 H 0 Z"
         transform="matrix(1.3333333,0,0,-1.3333333,6193.52,1440)"
         id="path851" />
    </clipPath>
    <clipPath
       clipPathUnits="userSpaceOnUse"
       id="clipPath852">
      <path
         d="M 649.982,738.441 H 856.568 V 433.654 H 649.982 Z"
         transform="translate(-811.3666,-738.44102)"
         id="path852" />
    </clipPath>
    <clipPath
       clipPathUnits="userSpaceOnUse"
       id="clipPath854">
      <path
         d="M 0,1080 H 1080 V 0 H 0 Z"
         transform="matrix(1.3333333,0,0,-1.3333333,6193.52,1440)"
         id="path854" />
    </clipPath>
    <clipPath
       clipPathUnits="userSpaceOnUse"
       id="clipPath856">
      <path
         d="M 0,1080 H 1080 V 0 H 0 Z"
         transform="translate(-548.33244,-881.57092)"
         id="path856" />
    </clipPath>
    <clipPath
       clipPathUnits="userSpaceOnUse"
       id="clipPath858">
      <path
         d="M 0,1080 H 1080 V 0 H 0 Z"
         transform="translate(-469.49064,-746.42682)"
         id="path858" />
    </clipPath>
    <clipPath
       clipPathUnits="userSpaceOnUse"
       id="clipPath860">
      <path
         d="M 0,1080 H 1080 V 0 H 0 Z"
         transform="translate(-618.78752,-746.42682)"
         id="path860" />
    </clipPath>
    <clipPath
       clipPathUnits="userSpaceOnUse"
       id="clipPath862">
      <path
         d="M 0,1080 H 1080 V 0 H 0 Z"
         transform="translate(-621.75429,-745.15482)"
         id="path862" />
    </clipPath>
    <clipPath
       clipPathUnits="userSpaceOnUse"
       id="clipPath864">
      <path
         d="M 0,1080 H 1080 V 0 H 0 Z"
         transform="translate(-581.16151,-636.27152)"
         id="path864" />
    </clipPath>
    <clipPath
       clipPathUnits="userSpaceOnUse"
       id="clipPath866">
      <path
         d="M 0,1080 H 1080 V 0 H 0 Z"
         transform="translate(-561.77971,-644.20322)"
         id="path866" />
    </clipPath>
    <clipPath
       clipPathUnits="userSpaceOnUse"
       id="clipPath868">
      <path
         d="M 0,1080 H 1080 V 0 H 0 Z"
         transform="translate(-653.94272,-608.27252)"
         id="path868" />
    </clipPath>
    <clipPath
       clipPathUnits="userSpaceOnUse"
       id="clipPath870">
      <path
         d="M 0,1080 H 1080 V 0 H 0 Z"
         transform="translate(-442.72201,-596.00641)"
         id="path870" />
    </clipPath>
    <clipPath
       clipPathUnits="userSpaceOnUse"
       id="clipPath872">
      <path
         d="m 548.332,577.536 c -34.571,1.199 -67.671,28.612 -105.61,28.612 v 0 c -38.787,0 -70.829,-32.041 -42.159,-77.574 v 0 c 28.578,-45.388 80.621,-67.311 147.769,-67.448 v 0 c 67.149,0.137 119.192,22.06 147.77,67.448 v 0 c 28.669,45.533 -3.372,77.574 -42.159,77.574 v 0 c -37.94,0 -71.039,-27.413 -105.611,-28.612"
         transform="translate(-548.33244,-601.32182)"
         id="path872" />
    </clipPath>
    <clipPath
       clipPathUnits="userSpaceOnUse"
       id="clipPath874">
      <path
         d="M 0,1080 H 1080 V 0 H 0 Z"
         transform="translate(-790.27479,-247.56841)"
         id="path874" />
    </clipPath>
    <clipPath
       clipPathUnits="userSpaceOnUse"
       id="clipPath875">
      <path
         d="M 307.99,172.044 H 787.863 V 77.5527 H 307.99 Z"
         transform="translate(-787.86272,-170.80823)"
         id="path875" />
    </clipPath>
    <clipPath
       clipPathUnits="userSpaceOnUse"
       id="clipPath877">
      <path
         d="M 0,1080 H 1080 V 0 H 0 Z"
         transform="matrix(1.3333333,0,0,-1.3333333,6193.52,1440)"
         id="path877" />
    </clipPath>
    <clipPath
       clipPathUnits="userSpaceOnUse"
       id="clipPath878">
      <path
         d="M 307.99,395.496 H 790.274 V 180.15 H 307.99 Z"
         transform="translate(-790.27479,-247.56841)"
         id="path878" />
    </clipPath>
    <clipPath
       clipPathUnits="userSpaceOnUse"
       id="clipPath880">
      <path
         d="M 0,1080 H 1080 V 0 H 0 Z"
         transform="matrix(1.3333333,0,0,-1.3333333,6193.52,1440)"
         id="path880" />
    </clipPath>
    <clipPath
       clipPathUnits="userSpaceOnUse"
       id="clipPath882">
      <path
         d="M 0,1080 H 1080 V 0 H 0 Z"
         transform="translate(-316.10191,-87.858002)"
         id="path882" />
    </clipPath>
    <clipPath
       clipPathUnits="userSpaceOnUse"
       id="clipPath884">
      <path
         d="M 0,1080 H 1080 V 0 H 0 Z"
         transform="translate(-338.99063,-288.30773)"
         id="path884" />
    </clipPath>
    <clipPath
       clipPathUnits="userSpaceOnUse"
       id="clipPath885">
      <path
         d="M 338.071,305.306 H 743.773 V 201.989 H 338.071 Z"
         transform="translate(-739.12929,-305.30618)"
         id="path885" />
    </clipPath>
    <clipPath
       clipPathUnits="userSpaceOnUse"
       id="clipPath887">
      <path
         d="M 0,1080 H 1080 V 0 H 0 Z"
         transform="matrix(1.3333333,0,0,-1.3333333,6193.52,1440)"
         id="path887" />
    </clipPath>
    <clipPath
       clipPathUnits="userSpaceOnUse"
       id="clipPath889">
      <path
         d="M 0,1080 H 1080 V 0 H 0 Z"
         transform="translate(-336.36458,-321.64223)"
         id="path889" />
    </clipPath>
    <clipPath
       clipPathUnits="userSpaceOnUse"
       id="clipPath891">
      <path
         d="M 0,1080 H 1080 V 0 H 0 Z"
         transform="translate(-347.09311,-288.57091)"
         id="path891" />
    </clipPath>
    <clipPath
       clipPathUnits="userSpaceOnUse"
       id="clipPath893">
      <path
         d="M 0,1080 H 1080 V 0 H 0 Z"
         transform="translate(-582.56484,-308.57183)"
         id="path893" />
    </clipPath>
    <clipPath
       clipPathUnits="userSpaceOnUse"
       id="clipPath894">
      <path
         d="M 328.313,329.487 H 554.014 V 273.276 H 328.313 Z"
         transform="translate(-328.31288,-312.84968)"
         id="path894" />
    </clipPath>
    <clipPath
       clipPathUnits="userSpaceOnUse"
       id="clipPath896">
      <path
         d="M 0,1080 H 1080 V 0 H 0 Z"
         transform="matrix(1.3333333,0,0,-1.3333333,6193.52,1440)"
         id="path896" />
    </clipPath>
    <clipPath
       clipPathUnits="userSpaceOnUse"
       id="clipPath898">
      <path
         d="M 0,1080 H 1080 V 0 H 0 Z"
         transform="translate(-455.71231,-353.75981)"
         id="path898" />
    </clipPath>
    <clipPath
       clipPathUnits="userSpaceOnUse"
       id="clipPath900">
      <path
         d="M 0,1080 H 1080 V 0 H 0 Z"
         transform="translate(-347.47598,-327.65678)"
         id="path900" />
    </clipPath>
    <clipPath
       clipPathUnits="userSpaceOnUse"
       id="clipPath902">
      <path
         d="M 0,1080 H 1080 V 0 H 0 Z"
         transform="translate(-746.69762,-308.56298)"
         id="path902" />
    </clipPath>
    <clipPath
       clipPathUnits="userSpaceOnUse"
       id="clipPath903">
      <path
         d="m 520.742,332.807 h 225.701 v -56.21 H 520.742 Z"
         transform="translate(-746.44374,-316.17053)"
         id="path903" />
    </clipPath>
    <clipPath
       clipPathUnits="userSpaceOnUse"
       id="clipPath905">
      <path
         d="M 0,1080 H 1080 V 0 H 0 Z"
         transform="matrix(1.3333333,0,0,-1.3333333,6193.52,1440)"
         id="path905" />
    </clipPath>
    <clipPath
       clipPathUnits="userSpaceOnUse"
       id="clipPath907">
      <path
         d="M 0,1080 H 1080 V 0 H 0 Z"
         transform="translate(-633.63024,-348.08651)"
         id="path907" />
    </clipPath>
    <clipPath
       clipPathUnits="userSpaceOnUse"
       id="clipPath909">
      <path
         d="M 0,1080 H 1080 V 0 H 0 Z"
         transform="translate(-528.54144,-314.94001)"
         id="path909" />
    </clipPath>
    <clipPath
       clipPathUnits="userSpaceOnUse"
       id="clipPath911">
      <path
         d="M 0,1080 H 1080 V 0 H 0 Z"
         transform="translate(-731.50044,-330.65091)"
         id="path911" />
    </clipPath>
    <clipPath
       clipPathUnits="userSpaceOnUse"
       id="clipPath912">
      <path
         d="M 333.716,414.949 H 742.3 V 321.295 H 333.716 Z"
         transform="translate(-742.30022,-366.61971)"
         id="path912" />
    </clipPath>
    <clipPath
       clipPathUnits="userSpaceOnUse"
       id="clipPath914">
      <path
         d="M 0,1080 H 1080 V 0 H 0 Z"
         transform="matrix(1.3333333,0,0,-1.3333333,6193.52,1440)"
         id="path914" />
    </clipPath>
    <clipPath
       clipPathUnits="userSpaceOnUse"
       id="clipPath915">
      <path
         d="m 331.098,376.488 h 413.337 v -92.85 H 331.098 Z"
         transform="translate(-731.50044,-330.65091)"
         id="path915" />
    </clipPath>
    <clipPath
       clipPathUnits="userSpaceOnUse"
       id="clipPath917">
      <path
         d="M 0,1080 H 1080 V 0 H 0 Z"
         transform="matrix(1.3333333,0,0,-1.3333333,6193.52,1440)"
         id="path917" />
    </clipPath>
    <clipPath
       clipPathUnits="userSpaceOnUse"
       id="clipPath919">
      <path
         d="M 0,1080 H 1080 V 0 H 0 Z"
         transform="translate(-365.47403,-409.75931)"
         id="path919" />
    </clipPath>
    <clipPath
       clipPathUnits="userSpaceOnUse"
       id="clipPath921">
      <path
         d="M 0,1080 H 1080 V 0 H 0 Z"
         transform="translate(-336.76208,-419.82141)"
         id="path921" />
    </clipPath>
    <clipPath
       clipPathUnits="userSpaceOnUse"
       id="clipPath923">
      <path
         d="M 0,1080 H 1080 V 0 H 0 Z"
         transform="translate(-539.60491,-496.82481)"
         id="path923" />
    </clipPath>
    <clipPath
       clipPathUnits="userSpaceOnUse"
       id="clipPath925">
      <path
         d="M 0,1080 H 1080 V 0 H 0 Z"
         transform="translate(-705.35882,-447.37161)"
         id="path925" />
    </clipPath>
    <clipPath
       clipPathUnits="userSpaceOnUse"
       id="clipPath926">
      <path
         d="M 376.676,452.017 H 705.359 V 368.528 H 376.676 Z"
         transform="translate(-705.35882,-452.01671)"
         id="path926" />
    </clipPath>
    <clipPath
       clipPathUnits="userSpaceOnUse"
       id="clipPath928">
      <path
         d="M 0,1080 H 1080 V 0 H 0 Z"
         transform="matrix(1.3333333,0,0,-1.3333333,6193.52,1440)"
         id="path928" />
    </clipPath>
    <clipPath
       clipPathUnits="userSpaceOnUse"
       id="clipPath930">
      <path
         d="M 0,1080 H 1080 V 0 H 0 Z"
         transform="translate(-376.68203,-444.74621)"
         id="path930" />
    </clipPath>
    <clipPath
       clipPathUnits="userSpaceOnUse"
       id="clipPath932">
      <path
         d="M 0,1080 H 1080 V 0 H 0 Z"
         transform="translate(-323.38711,-476.96591)"
         id="path932" />
    </clipPath>
    <clipPath
       clipPathUnits="userSpaceOnUse"
       id="clipPath933">
      <path
         d="M 321.148,504.353 H 754.415 V 390.408 H 321.148 Z"
         transform="translate(-754.41444,-481.39411)"
         id="path933" />
    </clipPath>
    <clipPath
       clipPathUnits="userSpaceOnUse"
       id="clipPath935">
      <path
         d="M 0,1080 H 1080 V 0 H 0 Z"
         transform="matrix(1.3333333,0,0,-1.3333333,6193.52,1440)"
         id="path935" />
    </clipPath>
    <clipPath
       clipPathUnits="userSpaceOnUse"
       id="clipPath936">
      <path
         d="M 326.848,570.554 H 760.113 V 469.298 H 326.848 Z"
         transform="translate(-327.71521,-470.42051)"
         id="path936" />
    </clipPath>
    <clipPath
       clipPathUnits="userSpaceOnUse"
       id="clipPath938">
      <path
         d="M 0,1080 H 1080 V 0 H 0 Z"
         transform="matrix(1.3333333,0,0,-1.3333333,6193.52,1440)"
         id="path938" />
    </clipPath>
    <clipPath
       clipPathUnits="userSpaceOnUse"
       id="clipPath940">
      <path
         d="M 0,1080 H 1080 V 0 H 0 Z"
         transform="translate(-540.01014,-559.84582)"
         id="path940" />
    </clipPath>
    <clipPath
       clipPathUnits="userSpaceOnUse"
       id="clipPath942">
      <path
         d="M 0,1080 H 1080 V 0 H 0 Z"
         transform="translate(-510.32559,-505.88681)"
         id="path942" />
    </clipPath>
    <clipPath
       clipPathUnits="userSpaceOnUse"
       id="clipPath944">
      <path
         d="M 0,1080 H 1080 V 0 H 0 Z"
         transform="translate(-571.15764,-489.53621)"
         id="path944" />
    </clipPath>
    <clipPath
       clipPathUnits="userSpaceOnUse"
       id="clipPath946">
      <path
         d="M 0,1080 H 1080 V 0 H 0 Z"
         transform="translate(-348.05701,-253.22273)"
         id="path946" />
    </clipPath>
    <clipPath
       clipPathUnits="userSpaceOnUse"
       id="clipPath947">
      <path
         d="M 252.664,484.241 H 406.98 V 300.785 H 252.664 Z"
         transform="translate(-253.58731,-395.84381)"
         id="path947" />
    </clipPath>
    <clipPath
       clipPathUnits="userSpaceOnUse"
       id="clipPath949">
      <path
         d="M 0,1080 H 1080 V 0 H 0 Z"
         transform="matrix(1.3333333,0,0,-1.3333333,6193.52,1440)"
         id="path949" />
    </clipPath>
    <clipPath
       clipPathUnits="userSpaceOnUse"
       id="clipPath951">
      <path
         d="M 0,1080 H 1080 V 0 H 0 Z"
         transform="translate(-347.56088,-475.99031)"
         id="path951" />
    </clipPath>
    <clipPath
       clipPathUnits="userSpaceOnUse"
       id="clipPath953">
      <path
         d="M 0,1080 H 1080 V 0 H 0 Z"
         transform="translate(-807.18985,-323.84918)"
         id="path953" />
    </clipPath>
    <clipPath
       clipPathUnits="userSpaceOnUse"
       id="clipPath954">
      <path
         d="M 669.464,482.01 H 823.78 V 298.554 H 669.464 Z"
         transform="translate(-822.85682,-393.61291)"
         id="path954" />
    </clipPath>
    <clipPath
       clipPathUnits="userSpaceOnUse"
       id="clipPath956">
      <path
         d="M 0,1080 H 1080 V 0 H 0 Z"
         transform="matrix(1.3333333,0,0,-1.3333333,6193.52,1440)"
         id="path956" />
    </clipPath>
    <clipPath
       clipPathUnits="userSpaceOnUse"
       id="clipPath958">
      <path
         d="M 0,1080 H 1080 V 0 H 0 Z"
         transform="translate(-728.89592,-474.75841)"
         id="path958" />
    </clipPath>
    <clipPath
       clipPathUnits="userSpaceOnUse"
       id="clipPath960">
      <path
         d="M 0,1080 H 1080 V 0 H 0 Z"
         transform="translate(-201.60878,-153.1461)"
         id="path960" />
    </clipPath>
    <clipPath
       clipPathUnits="userSpaceOnUse"
       id="clipPath961">
      <path
         d="M 190.546,301.019 H 376.811 V 144.586 H 190.546 Z"
         transform="translate(-242.94758,-294.58943)"
         id="path961" />
    </clipPath>
    <clipPath
       clipPathUnits="userSpaceOnUse"
       id="clipPath963">
      <path
         d="M 0,1080 H 1080 V 0 H 0 Z"
         transform="matrix(1.3333333,0,0,-1.3333333,6193.52,1440)"
         id="path963" />
    </clipPath>
    <clipPath
       clipPathUnits="userSpaceOnUse"
       id="clipPath965">
      <path
         d="M 0,1080 H 1080 V 0 H 0 Z"
         transform="translate(-209.04533,-156.37208)"
         id="path965" />
    </clipPath>
    <clipPath
       clipPathUnits="userSpaceOnUse"
       id="clipPath967">
      <path
         d="M 0,1080 H 1080 V 0 H 0 Z"
         transform="translate(-220.65758,-187.19003)"
         id="path967" />
    </clipPath>
    <clipPath
       clipPathUnits="userSpaceOnUse"
       id="clipPath969">
      <path
         d="M 0,1080 H 1080 V 0 H 0 Z"
         transform="translate(-880.70642,-149.2911)"
         id="path969" />
    </clipPath>
    <clipPath
       clipPathUnits="userSpaceOnUse"
       id="clipPath970">
      <path
         d="M 705.505,297.05 H 891.769 V 140.617 H 705.505 Z"
         transform="translate(-839.36762,-290.62021)"
         id="path970" />
    </clipPath>
    <clipPath
       clipPathUnits="userSpaceOnUse"
       id="clipPath972">
      <path
         d="M 0,1080 H 1080 V 0 H 0 Z"
         transform="matrix(1.3333333,0,0,-1.3333333,6193.52,1440)"
         id="path972" />
    </clipPath>
    <clipPath
       clipPathUnits="userSpaceOnUse"
       id="clipPath974">
      <path
         d="M 0,1080 H 1080 V 0 H 0 Z"
         transform="translate(-861.65762,-183.3345)"
         id="path974" />
    </clipPath>
    <clipPath
       clipPathUnits="userSpaceOnUse"
       id="clipPath976">
      <path
         d="M 0,1080 H 1080 V 0 H 0 Z"
         transform="translate(-874.2367,-241.99568)"
         id="path976" />
    </clipPath>
    <clipPath
       clipPathUnits="userSpaceOnUse"
       id="clipPath978">
      <path
         d="M 0,1080 H 1080 V 0 H 0 Z"
         transform="translate(-412.20354,-774.86922)"
         id="path978" />
    </clipPath>
    <clipPath
       clipPathUnits="userSpaceOnUse"
       id="clipPath980">
      <path
         d="M 0,1080 H 1080 V 0 H 0 Z"
         transform="translate(-745.34124,-692.93612)"
         id="path980" />
    </clipPath>
    <clipPath
       clipPathUnits="userSpaceOnUse"
       id="clipPath982">
      <path
         d="M 0,1080 H 1080 V 0 H 0 Z"
         transform="translate(-683.62052,-716.69242)"
         id="path982" />
    </clipPath>
    <clipPath
       clipPathUnits="userSpaceOnUse"
       id="clipPath984">
      <path
         d="M 0,1080 H 1080 V 0 H 0 Z"
         transform="translate(-689.72402,-715.73392)"
         id="path984" />
    </clipPath>
    <clipPath
       clipPathUnits="userSpaceOnUse"
       id="clipPath986">
      <path
         d="M 0,1080 H 1080 V 0 H 0 Z"
         transform="translate(-335.14981,-692.93612)"
         id="path986" />
    </clipPath>
    <clipPath
       clipPathUnits="userSpaceOnUse"
       id="clipPath988">
      <path
         d="M 0,1080 H 1080 V 0 H 0 Z"
         transform="translate(-397.11953,-714.82482)"
         id="path988" />
    </clipPath>
    <clipPath
       clipPathUnits="userSpaceOnUse"
       id="clipPath990">
      <path
         d="M 0,1080 H 1080 V 0 H 0 Z"
         transform="translate(-392.89883,-717.10312)"
         id="path990" />
    </clipPath>
    <clipPath
       clipPathUnits="userSpaceOnUse"
       id="clipPath992">
      <path
         d="M 0,1080 H 1080 V 0 H 0 Z"
         transform="translate(-551.59411,-793.47862)"
         id="path992" />
    </clipPath>
  </defs>
  <sodipodi:namedview
     id="namedview1"
     pagecolor="#ffffff"
     bordercolor="#000000"
     borderopacity="0.25"
     inkscape:showpageshadow="2"
     inkscape:pageopacity="0.0"
     inkscape:pagecheckerboard="0"
     inkscape:deskcolor="#d1d1d1">
    <inkscape:page
       x="1.0632873e-05"
       y="2.8002078e-06"
       width="953.48145"
       height="1254.7839"
       id="page2"
       margin="0"
       bleed="0" />
  </sodipodi:namedview>
  <g
     id="layer-MC0"
     inkscape:groupmode="layer"
     inkscape:label="Layer 1"
     transform="translate(-6436.7798,-92.608536)">
    <path
       id="path833"
       d="m 0,0 c 0,0 -46.397,101.885 -139.647,37.499 -93.25,-64.388 -20.36,-167.449 22.013,-178.085 l 24.612,0.465 106.571,111.012 z"
       style="fill:#1a1819;fill-opacity:1;fill-rule:nonzero;stroke:none"
       transform="matrix(1.3333333,0,0,-1.3333333,6711.1832,299.38147)"
       clip-path="url(#clipPath834)"
       inkscape:export-filename="path833.svg"
       inkscape:export-xdpi="96"
       inkscape:export-ydpi="96" />
    <g
       opacity="0.600006"
       id="g836"
       clip-path="url(#clipPath837)">
      <path
         d="M 0,0 C 53.978,37.27 93.237,22.335 117.873,0.865 104.586,23.381 59.515,83.849 -17.604,30.601 -75.43,-9.327 -69.359,-64.121 -46.303,-102.53 -53.202,-68.291 -43.691,-30.168 0,0"
         style="fill:#ffffff;fill-opacity:1;fill-rule:nonzero;stroke:none"
         transform="matrix(1.3333333,0,0,-1.3333333,6548.458,279.85533)"
         clip-path="url(#clipPath835)"
         id="path836" />
    </g>
    <path
       id="path838"
       d="m 0,0 c -16.244,0 -33.724,-6.403 -52.175,-19.142 -31.101,-21.476 -44.471,-49.777 -38.663,-81.844 6.777,-37.416 36.661,-68.035 55.274,-73.85 l 17.721,0.336 97.231,101.28 -10.039,21.569 C 69.02,-50.945 50.409,-11.606 15.604,-2.077 10.544,-0.691 5.338,0 0,0 m -38.532,-199.429 -1.585,0.398 c -14.791,3.713 -31.392,15.603 -45.546,32.622 -15.051,18.096 -25.461,39.777 -29.315,61.05 -7.543,41.65 9.81,79.438 48.864,106.404 30.823,21.283 60.562,28.173 88.387,20.487 C 67.968,8.906 90.4,-38.707 91.642,-41.412 L 108.717,-78.093 -7.196,-198.835 Z"
       style="fill:#000000;fill-opacity:1;fill-rule:nonzero;stroke:none"
       transform="matrix(1.3333333,0,0,-1.3333333,6603.846,237.31827)"
       clip-path="url(#clipPath839)" />
    <path
       id="path840"
       d="m 0,0 c 0,0 46.396,101.885 139.646,37.499 93.25,-64.388 20.36,-167.449 -22.013,-178.085 l -24.612,0.465 -106.571,111.012 z"
       style="fill:#1a1819;fill-opacity:1;fill-rule:nonzero;stroke:none"
       transform="matrix(1.3333333,0,0,-1.3333333,7113.2067,299.38147)"
       clip-path="url(#clipPath841)" />
    <g
       opacity="0.600006"
       id="g843"
       clip-path="url(#clipPath844)">
      <path
         d="M 0,0 C -53.977,37.27 -93.236,22.335 -117.872,0.865 -104.585,23.381 -59.514,83.849 17.604,30.601 75.431,-9.327 69.36,-64.121 46.304,-102.53 53.203,-68.291 43.692,-30.168 0,0"
         style="fill:#ffffff;fill-opacity:1;fill-rule:nonzero;stroke:none"
         transform="matrix(1.3333333,0,0,-1.3333333,7272.9971,278.134)"
         clip-path="url(#clipPath842)"
         id="path843" />
    </g>
    <path
       id="path845"
       d="m 0,0 17.723,-0.336 c 18.613,5.815 48.497,36.434 55.274,73.849 5.809,32.068 -7.561,60.369 -38.663,81.845 -24.513,16.924 -47.319,22.667 -67.779,17.065 -34.944,-9.567 -53.564,-49.181 -53.747,-49.58 l -0.033,-0.068 -10.004,-21.495 z m 20.689,-24.929 -31.334,0.594 -115.913,120.742 17.076,36.681 c 1.24,2.705 23.672,50.318 69.368,62.944 27.822,7.69 57.562,0.796 88.385,-20.487 C 87.327,148.579 104.681,110.79 97.136,69.141 93.283,47.868 82.872,26.187 67.822,8.091 53.667,-8.928 37.066,-20.818 22.274,-24.531 Z"
       style="fill:#000000;fill-opacity:1;fill-rule:nonzero;stroke:none"
       transform="matrix(1.3333333,0,0,-1.3333333,7244.3317,469.98493)"
       clip-path="url(#clipPath846)" />
    <path
       id="path847"
       d="m 0,0 c 0,0 -48.846,104.352 -104.352,144.316 -49.6,35.712 -124.008,48.367 -182.059,50.658 -58.051,-2.291 -132.459,-14.946 -182.06,-50.658 C -523.977,104.352 -572.822,0 -572.822,0 c 0,0 -51.066,-73.268 6.661,-168.738 55.099,-91.127 185.016,-113.462 279.75,-115.306 94.733,1.844 224.65,24.179 279.75,115.306 C 51.065,-73.268 0,0 0,0"
       style="fill:#ffffff;fill-opacity:1;fill-rule:nonzero;stroke:none"
       transform="matrix(1.3333333,0,0,-1.3333333,7306.5113,509.89187)"
       clip-path="url(#clipPath848)" />
    <g
       opacity="0.199997"
       id="g850"
       clip-path="url(#clipPath851)">
      <path
         d="m 0,0 c 0,0 -77.48,-200.203 161.385,-304.787 0,0 -47.774,3.874 -113.442,39.961 -16.275,8.943 -60.415,39.34 -73.333,74.577 -12.918,35.237 -25.829,76.554 -16.791,104.959 C -33.143,-56.884 0,0 0,0"
         style="fill:#2b0d0d;fill-opacity:1;fill-rule:nonzero;stroke:none"
         transform="matrix(1.3333333,0,0,-1.3333333,6571.2575,455.412)"
         clip-path="url(#clipPath849)"
         id="path850" />
    </g>
    <g
       opacity="0.199997"
       id="g853"
       clip-path="url(#clipPath854)">
      <path
         d="m 0,0 c 0,0 77.48,-200.203 -161.385,-304.787 0,0 47.774,3.874 113.442,39.961 16.275,8.943 60.415,39.34 73.333,74.577 12.918,35.237 25.829,76.554 16.791,104.959 C 33.143,-56.884 0,0 0,0"
         style="fill:#2b0d0d;fill-opacity:1;fill-rule:nonzero;stroke:none"
         transform="matrix(1.3333333,0,0,-1.3333333,7275.3421,455.412)"
         clip-path="url(#clipPath852)"
         id="path853" />
    </g>
    <path
       id="path855"
       d="m 0,0 c -103.399,-4.161 -157.271,-35.35 -175.646,-48.581 -52.52,-37.813 -100.348,-139.045 -100.826,-140.063 l -0.397,-0.849 -0.538,-0.772 c -0.096,-0.141 -11.806,-17.431 -16.708,-45.29 -6.532,-37.109 1.462,-74.621 23.757,-111.494 55.71,-92.137 193.202,-108.481 270.358,-110.008 77.155,1.527 214.648,17.871 270.359,110.008 22.295,36.873 30.288,74.385 23.757,111.494 -4.904,27.859 -16.613,45.149 -16.731,45.321 l -0.51,0.742 -0.404,0.848 c -0.477,1.018 -48.305,102.25 -100.825,140.063 C 157.271,-35.35 103.398,-4.161 0,0 m 0,-479.012 -0.214,0.006 c -40.862,0.795 -101.445,5.733 -158.019,24.741 -60.745,20.409 -104.788,52.661 -130.909,95.859 -31.6,52.262 -31.788,98.36 -26.38,127.829 5.299,28.885 16.793,47.798 19.532,52.002 2.202,4.629 13.923,28.826 31.596,57.513 26.177,42.491 51.721,72.87 75.921,90.294 57.915,41.699 142.672,50.928 188.04,52.719 L 0,21.967 0.433,21.951 c 45.367,-1.791 130.124,-11.02 188.04,-52.719 24.2,-17.424 49.744,-47.803 75.921,-90.294 17.672,-28.687 29.393,-52.884 31.595,-57.513 2.74,-4.202 14.234,-23.115 19.533,-52.002 5.408,-29.469 5.22,-75.567 -26.38,-127.829 -26.12,-43.199 -70.164,-75.45 -130.91,-95.859 C 101.66,-473.273 41.075,-478.211 0.214,-479.006 Z"
       style="fill:#000000;fill-opacity:1;fill-rule:nonzero;stroke:none"
       transform="matrix(1.3333333,0,0,-1.3333333,6924.6299,264.57213)"
       clip-path="url(#clipPath856)" />
    <path
       id="path857"
       d="m 0,0 c 6.661,-15.542 26.644,-75.488 -19.981,-102.131 -46.626,-26.643 -126.554,-33.304 -144.317,-17.762 -11.814,10.338 -15.541,35.524 6.661,64.387 22.202,28.863 44.405,82.149 88.81,86.589 C -24.423,35.523 -6.66,15.542 0,0"
       style="fill:#4e4a4a;fill-opacity:1;fill-rule:nonzero;stroke:none"
       transform="matrix(1.3333333,0,0,-1.3333333,6819.5075,444.76427)"
       clip-path="url(#clipPath858)" />
    <path
       id="path859"
       d="m 0,0 c -6.66,-15.542 -26.643,-75.488 19.982,-102.131 46.625,-26.643 126.554,-33.304 144.316,-17.762 11.815,10.338 15.542,35.524 -6.66,64.387 -22.203,28.863 -44.406,82.149 -88.81,86.589 C 24.423,35.523 6.661,15.542 0,0"
       style="fill:#4e4a4a;fill-opacity:1;fill-rule:nonzero;stroke:none"
       transform="matrix(1.3333333,0,0,-1.3333333,7018.57,444.76427)"
       clip-path="url(#clipPath860)" />
    <path
       id="path861"
       d="m 0,0 c -3.08,-7.187 -28.726,-71.003 18.617,-98.057 20.839,-11.908 51.392,-20.989 81.729,-24.294 27.995,-3.046 51.098,-0.631 58.859,6.159 9.382,8.21 15.236,30.961 -7.093,59.989 -5.118,6.654 -10.172,14.484 -15.521,22.775 C 118.653,-5.636 98.323,25.865 65.539,29.143 46.544,31.044 12.766,29.784 0,0 m 123.399,-130.165 c -33.715,0 -78.967,9.922 -107.985,26.503 -52.201,29.829 -24.66,98.476 -21.348,106.205 6.176,14.409 23.753,37.863 72.116,33.024 35.881,-3.588 57.105,-36.477 75.832,-65.494 5.277,-8.176 10.259,-15.898 15.215,-22.339 10.531,-13.69 16.325,-27.869 16.754,-41.003 0.376,-11.473 -3.461,-21.599 -10.526,-27.781 -7.137,-6.245 -21.932,-9.115 -40.058,-9.115"
       style="fill:#1a1819;fill-opacity:1;fill-rule:nonzero;stroke:none"
       transform="matrix(1.3333333,0,0,-1.3333333,7022.5257,446.46027)"
       clip-path="url(#clipPath862)" />
    <path
       id="path863"
       d="M 0,0 C 0.475,8.024 -1.746,23.566 -35.252,24.676 -72.266,24.676 -74.027,3.525 -74.027,0 -75.014,-9.738 -65.215,-28.201 -37.014,-28.201 -8.813,-28.201 0.475,-11.958 0,0"
       style="fill:#000000;fill-opacity:1;fill-rule:nonzero;stroke:none"
       transform="matrix(1.3333333,0,0,-1.3333333,6968.402,591.638)"
       clip-path="url(#clipPath864)" />
    <path
       id="path865"
       d="m 0,0 c 0,-3.407 -7.892,-6.169 -17.626,-6.169 -9.734,0 -17.625,2.762 -17.625,6.169 0,3.407 7.891,6.169 17.625,6.169 C -7.892,6.169 0,3.407 0,0"
       style="fill:#ffffff;fill-opacity:1;fill-rule:nonzero;stroke:none"
       transform="matrix(1.3333333,0,0,-1.3333333,6942.5596,581.0624)"
       clip-path="url(#clipPath866)" />
    <path
       id="path867"
       d="M 0,0 C -37.939,0 -71.039,-27.413 -105.61,-28.611 -140.182,-27.413 -173.281,0 -211.221,0 c -38.787,0 -70.828,-32.042 -42.159,-77.574 28.578,-45.389 80.621,-67.311 147.77,-67.448 67.148,0.137 119.191,22.059 147.769,67.448 C 70.828,-32.042 38.787,0 0,0"
       style="fill:#000000;fill-opacity:1;fill-rule:nonzero;stroke:none"
       transform="matrix(1.3333333,0,0,-1.3333333,7065.4436,628.97)"
       clip-path="url(#clipPath868)" />
    <path
       id="path869"
       d="m 0,0 c -16.606,0 -31.335,-7.242 -37.522,-18.45 -6.005,-10.876 -4.019,-24.819 5.742,-40.322 25.34,-40.245 72.857,-61.586 137.416,-61.718 64.509,0.132 112.025,21.473 137.364,61.718 9.762,15.503 11.748,29.446 5.743,40.322 C 242.555,-7.242 227.826,0 211.221,0 193.774,0 177.07,-6.76 159.386,-13.918 142.333,-20.82 124.7,-27.957 106.035,-28.604 l -0.425,-0.015 -0.424,0.015 C 86.521,-27.957 68.888,-20.82 51.835,-13.918 34.15,-6.761 17.446,0 0,0 m 105.636,-145.022 c -73.448,0.15 -128.127,25.455 -158.175,73.179 -19.695,31.28 -12.502,54.307 -6.46,65.25 10.6,19.198 33.206,31.125 58.999,31.125 22.223,0 41.955,-7.987 61.039,-15.71 15.614,-6.32 30.371,-12.293 44.571,-12.892 14.201,0.599 28.957,6.572 44.572,12.892 19.084,7.723 38.816,15.71 61.039,15.71 25.793,0 48.399,-11.927 59,-31.126 6.041,-10.942 13.234,-33.969 -6.461,-65.249 -30.049,-47.724 -84.727,-73.029 -158.124,-73.179"
       style="fill:#000000;fill-opacity:1;fill-rule:nonzero;stroke:none"
       transform="matrix(1.3333333,0,0,-1.3333333,6783.816,645.3248)"
       clip-path="url(#clipPath870)" />
    <path
       id="path871"
       d="M 0,0 -121.084,12.746 -128.437,0 C -128.437,0 -85.578,-54.742 0,-55.014 85.578,-54.742 128.437,0 128.437,0 l -5.229,12.746 z"
       style="fill:#ffffff;fill-opacity:1;fill-rule:nonzero;stroke:none"
       transform="matrix(1.3333333,0,0,-1.3333333,6924.6299,638.2376)"
       clip-path="url(#clipPath872)" />
    <path
       id="path873"
       d="m 0,0 -1.621,-51.065 -0.791,-25.695 -2.857,-93.256 -477.016,2.229 V -4.458 L -399,147.927 h 333.547 z"
       style="fill:#ffffff;fill-opacity:1;fill-rule:nonzero;stroke:none"
       transform="matrix(1.3333333,0,0,-1.3333333,7247.2197,1109.9088)"
       clip-path="url(#clipPath874)" />
    <g
       opacity="0.199997"
       id="g876"
       clip-path="url(#clipPath877)">
      <path
         d="m 0,0 -2.856,-93.255 -477.017,2.229 V 1.236 c 63.69,-31.207 143.308,-55.848 235.914,-55.848 97.126,0 179.438,24.499 243.959,54.612"
         style="fill:#2b0d0d;fill-opacity:1;fill-rule:nonzero;stroke:none"
         transform="matrix(1.3333333,0,0,-1.3333333,7244.0036,1212.2557)"
         clip-path="url(#clipPath875)"
         id="path876" />
    </g>
    <g
       opacity="0.199997"
       id="g879"
       clip-path="url(#clipPath880)">
      <path
         d="m 0,0 -0.507,-15.725 c -67.885,-26.222 -160.187,-51.694 -262.622,-51.694 -91.776,0 -165.335,28.066 -219.156,59.799 v 3.162 L -399,147.927 h 333.547 z"
         style="fill:#2b0d0d;fill-opacity:1;fill-rule:nonzero;stroke:none"
         transform="matrix(1.3333333,0,0,-1.3333333,7247.2197,1109.9088)"
         clip-path="url(#clipPath878)"
         id="path879" />
    </g>
    <path
       id="path881"
       d="m 0,0 461.05,-2.154 3.405,111.056 1.563,49.227 -62.571,141.412 H 79.986 L 0,153.189 Z m 468.91,-18.402 h -0.038 l -477.016,2.228 c -4.461,0.022 -8.068,3.644 -8.068,8.106 v 163.329 c 0,1.358 0.342,2.695 0.993,3.886 l 83.285,152.386 c 1.421,2.601 4.149,4.219 7.113,4.219 h 333.546 c 3.209,0 6.115,-1.892 7.413,-4.826 l 65.453,-147.927 c 0.492,-1.113 0.727,-2.322 0.688,-3.538 l -1.621,-51.065 -3.647,-118.941 c -0.134,-4.379 -3.724,-7.857 -8.101,-7.857"
       style="fill:#000000;fill-opacity:1;fill-rule:nonzero;stroke:none"
       transform="matrix(1.3333333,0,0,-1.3333333,6614.9892,1322.856)"
       clip-path="url(#clipPath882)" />
    <path
       id="path883"
       d="M 0,0 C -1.418,47.215 90.58,85.109 202.844,85.109 314.701,85.109 405.687,47.215 405.687,0 405.281,-62.819 315.106,-85.109 202.844,-85.109 90.985,-85.109 2.229,-63.427 0,0"
       style="fill:#ffad29;fill-opacity:1;fill-rule:nonzero;stroke:none"
       transform="matrix(1.3333333,0,0,-1.3333333,6645.5075,1055.5897)"
       clip-path="url(#clipPath884)" />
    <g
       opacity="0.199997"
       id="g886"
       clip-path="url(#clipPath887)">
      <path
         d="m 0,0 c -13.872,-51.31 -98.093,-69.983 -200.825,-69.983 -98.475,0 -179.033,16.811 -198.424,64.108 -1.295,-4.024 -1.92,-8.142 -1.794,-12.333 2.23,-63.427 90.986,-85.109 202.844,-85.109 112.262,0 202.437,22.29 202.844,85.109 C 4.645,-11.952 3.032,-5.862 0,0"
         style="fill:#2b0d0d;fill-opacity:1;fill-rule:nonzero;stroke:none"
         transform="matrix(1.3333333,0,0,-1.3333333,7179.0257,1032.9251)"
         clip-path="url(#clipPath885)"
         id="path886" />
    </g>
    <path
       id="path888"
       d="M 0,0 C -1.419,47.215 90.58,85.109 202.843,85.109 314.701,85.109 405.687,47.215 405.687,0 405.281,-62.819 315.106,-85.109 202.843,-85.109 90.985,-85.109 2.229,-63.427 0,0"
       style="fill:#ffad29;fill-opacity:1;fill-rule:nonzero;stroke:none"
       transform="matrix(1.3333333,0,0,-1.3333333,6642.0061,1011.1437)"
       clip-path="url(#clipPath889)" />
    <path
       id="path890"
       d="m 0,0 c 2.268,-63.859 107.149,-77.266 194.741,-77.266 72.543,0 194.306,10.011 194.738,77.055 0,18.993 -19.865,38.232 -54.5,52.731 C 297.67,68.139 247.865,76.74 194.741,76.74 114.734,76.74 41.401,56.563 12.259,26.532 3.861,17.878 -0.263,8.953 0,0 m 194.741,-93.478 c -61.523,0 -110.417,6.481 -145.32,19.265 -42.372,15.517 -64.451,40.302 -65.624,73.665 0,0.014 -0.001,0.027 -0.001,0.041 -0.405,13.507 5.257,26.403 16.829,38.329 32.499,33.49 108.694,55.13 194.116,55.13 55.224,0 107.252,-9.049 146.498,-25.478 41.562,-17.399 64.451,-41.454 64.451,-67.737 -0.393,-61 -73.338,-93.215 -210.949,-93.215"
       style="fill:#000000;fill-opacity:1;fill-rule:nonzero;stroke:none"
       transform="matrix(1.3333333,0,0,-1.3333333,6656.3108,1055.2388)"
       clip-path="url(#clipPath891)" />
    <path
       id="path892"
       d="m 0,0 c 0,-29.383 -56.739,-53.294 -126.854,-53.294 -70.113,0 -126.852,23.709 -126.852,53.294 0,7.498 3.647,14.792 10.537,21.277 19.454,18.846 64.237,32.017 116.315,32.017 66.062,0 120.37,-21.074 126.246,-48.431 C -0.203,3.242 0,1.621 0,0"
       style="fill:#d62727;fill-opacity:1;fill-rule:nonzero;stroke:none"
       transform="matrix(1.3333333,0,0,-1.3333333,6970.2731,1028.5709)"
       clip-path="url(#clipPath893)" />
    <g
       opacity="0.600006"
       id="g895"
       clip-path="url(#clipPath896)">
      <path
         d="m 0,0 c 102.455,-74.835 198.345,-23.79 225.701,-6.12 v 0.264 c 0,0.648 -0.06,1.276 -0.141,1.925 C 66.852,-66.811 12.32,16.637 12.32,16.637 8.167,13.192 4.863,9.605 2.614,5.836 1.459,3.931 0.588,1.986 0,0"
         style="fill:#ffffff;fill-opacity:1;fill-rule:nonzero;stroke:none"
         transform="matrix(1.3333333,0,0,-1.3333333,6631.2705,1022.8671)"
         clip-path="url(#clipPath894)"
         id="path895" />
    </g>
    <path
       id="path897"
       d="m 0,0 c -47.841,0 -92.318,-11.948 -110.676,-29.732 -3.728,-3.511 -8.072,-8.961 -8.072,-15.456 0,-21.374 48.768,-45.189 118.748,-45.189 69.979,0 118.747,23.815 118.747,45.189 0,0.951 -0.123,1.926 -0.366,2.897 -0.022,0.088 -0.042,0.176 -0.061,0.264 C 113.979,-21.815 67.507,0 0,0 m 0,-106.588 c -76.939,0 -134.959,26.396 -134.959,61.4 0,9.722 4.525,19.122 13.088,27.18 21.424,20.756 69.295,34.22 121.871,34.22 70.818,0 127.187,-22.999 134.141,-54.703 0.543,-2.214 0.817,-4.466 0.817,-6.697 0,-17.691 -14.95,-33.722 -42.097,-45.138 C 67.924,-100.813 34.944,-106.588 0,-106.588"
       style="fill:#000000;fill-opacity:1;fill-rule:nonzero;stroke:none"
       transform="matrix(1.3333333,0,0,-1.3333333,6801.1364,968.32027)"
       clip-path="url(#clipPath898)" />
    <path
       id="path899"
       d="m 0,0 c 8.855,-19.519 54.174,-39.234 118.166,-39.234 45.522,0 88.072,10.813 108.23,27.201 C 217.544,7.339 172.235,27.009 108.215,27.205 62.705,27.205 20.154,16.392 0,0 m 118.166,-53.244 c -70.353,0 -126.327,22.692 -133.092,53.955 -0.512,2.366 0.235,4.828 1.973,6.513 21.314,20.647 68.883,33.989 121.189,33.989 70.408,-0.214 126.371,-22.905 133.091,-53.953 0.512,-2.366 -0.234,-4.828 -1.973,-6.513 -21.315,-20.648 -68.884,-33.991 -121.188,-33.991"
       style="fill:#000000;fill-opacity:1;fill-rule:nonzero;stroke:none"
       transform="matrix(1.3333333,0,0,-1.3333333,6656.8213,1003.1243)"
       clip-path="url(#clipPath900)" />
    <path
       id="path901"
       d="m 0,0 c 0,-26.343 -50.66,-47.621 -113.276,-47.621 -62.413,0 -112.932,21.136 -113.276,47.357 V 0 c 0,0.648 0.061,1.277 0.142,1.925 0.081,0.567 0.162,1.155 0.264,1.722 4.458,24.723 53.293,43.974 113.073,43.974 43.163,0 80.853,-10.133 99.902,-25.128 4.153,-3.445 7.457,-7.032 9.706,-10.801 C -2.31,9.788 -1.438,7.842 -0.851,5.856 -0.283,3.931 0,1.986 0,0"
       style="fill:#d62727;fill-opacity:1;fill-rule:nonzero;stroke:none"
       transform="matrix(1.3333333,0,0,-1.3333333,7189.1168,1028.5827)"
       clip-path="url(#clipPath902)" />
    <g
       opacity="0.600006"
       id="g904"
       clip-path="url(#clipPath905)">
      <path
         d="m 0,0 c -102.455,-74.835 -198.345,-23.79 -225.701,-6.12 v 0.264 c 0,0.648 0.06,1.276 0.141,1.925 158.708,-62.88 213.24,20.568 213.24,20.568 C -8.167,13.192 -4.863,9.605 -2.614,5.836 -1.459,3.931 -0.588,1.986 0,0"
         style="fill:#ffffff;fill-opacity:1;fill-rule:nonzero;stroke:none"
         transform="matrix(1.3333333,0,0,-1.3333333,7188.7783,1018.4393)"
         clip-path="url(#clipPath903)"
         id="path904" />
    </g>
    <path
       id="path906"
       d="m 0,0 c -58.842,0 -101.848,-19.29 -105.097,-37.306 -0.133,-0.804 -0.276,-1.664 -0.276,-2.209 0,-18.69 43.192,-39.514 105.17,-39.514 61.979,0 105.171,20.824 105.171,39.514 0,5.13 -3.418,10.577 -10.16,16.189 C 76.728,-9.153 39.534,0 0,0 m -0.203,-95.241 c -69.198,0 -121.382,23.957 -121.382,55.726 0,1.887 0.287,3.602 0.516,4.98 5.31,29.45 56.219,50.747 121.069,50.747 43.665,0 83.866,-10.294 104.916,-26.864 0.054,-0.043 0.106,-0.086 0.159,-0.13 10.686,-8.861 16.105,-18.528 16.105,-28.733 0,-31.769 -52.184,-55.726 -121.383,-55.726"
       style="fill:#000000;fill-opacity:1;fill-rule:nonzero;stroke:none"
       transform="matrix(1.3333333,0,0,-1.3333333,7038.3603,975.88467)"
       clip-path="url(#clipPath907)" />
    <path
       id="path908"
       d="m 0,0 c 19.456,-12.935 53.918,-20.844 91.715,-20.844 56.892,0 96.754,17.07 104.868,34.21 -19.375,12.61 -54.552,20.708 -91.729,20.882 C 47.95,34.248 8.074,17.152 0,0 m 91.715,-34.853 c -43.431,0 -83.37,10.204 -104.235,26.628 -2.036,1.602 -3.02,4.198 -2.56,6.747 5.196,28.819 55.649,49.735 119.966,49.735 43.42,-0.203 83.333,-10.397 104.199,-26.6 2.059,-1.598 3.059,-4.209 2.597,-6.775 -5.198,-28.819 -55.651,-49.735 -119.967,-49.735"
       style="fill:#000000;fill-opacity:1;fill-rule:nonzero;stroke:none"
       transform="matrix(1.3333333,0,0,-1.3333333,6898.2419,1020.08)"
       clip-path="url(#clipPath909)" />
    <path
       id="path910"
       d="m 0,0 c -19.656,-8.309 -25.938,7.498 -40.934,1.216 -14.996,-6.282 -12.969,-33.03 -40.933,-37.692 -27.965,-4.255 -50.458,16.212 -65.655,16.212 -15.199,0 -22.495,-26.749 -51.066,-26.749 -28.573,0 -35.26,24.317 -49.849,26.344 -14.591,1.823 -24.723,-24.925 -52.283,-14.996 -27.153,9.93 -27.964,27.56 -41.743,34.247 -13.779,6.687 -28.775,-19.251 -51.471,6.687 -8.025,9.159 -7.68,21.702 -3.85,34.125 0.648,2.148 1.419,4.315 2.269,6.443 8.066,20.265 23.264,38.461 23.264,38.461 L -27.965,78.625 C -5.573,65.453 6.321,49.87 10.8,35.969 12.098,31.916 12.786,28.005 12.907,24.337 13.354,12.665 8.206,3.465 0,0"
       style="fill:#86c21f;fill-opacity:1;fill-rule:nonzero;stroke:none"
       transform="matrix(1.3333333,0,0,-1.3333333,7168.8539,999.13213)"
       clip-path="url(#clipPath911)" />
    <g
       opacity="0.600006"
       id="g913"
       clip-path="url(#clipPath914)">
      <path
         d="m 0,0 c -185.615,-85.202 -347.042,-30.295 -408.584,3.425 0.648,2.148 1.419,4.316 2.27,6.444 8.065,20.264 23.263,38.461 23.263,38.461 L -38.765,42.656 C -16.373,29.484 -4.479,13.901 0,0"
         style="fill:#ffffff;fill-opacity:1;fill-rule:nonzero;stroke:none"
         transform="matrix(1.3333333,0,0,-1.3333333,7183.2536,951.17373)"
         clip-path="url(#clipPath912)"
         id="path913" />
    </g>
    <g
       opacity="0.199997"
       id="g916"
       clip-path="url(#clipPath917)">
      <path
         d="m 0,0 c -19.656,-8.309 -25.938,7.498 -40.934,1.216 -14.996,-6.282 -12.969,-33.03 -40.933,-37.692 -27.965,-4.255 -50.458,16.212 -65.655,16.212 -15.199,0 -22.495,-26.749 -51.066,-26.749 -28.573,0 -35.26,24.317 -49.849,26.344 -14.591,1.823 -24.723,-24.925 -52.283,-14.996 -27.153,9.93 -27.964,27.56 -41.743,34.247 -13.779,6.687 -28.775,-19.251 -51.471,6.687 -9.422,10.76 -7.295,26.181 -1.581,40.568 2.594,-4.458 3.749,-13.151 5.898,-16.555 4.417,-6.991 11.185,-12.564 19.21,-14.773 13.374,-3.708 28.41,0.851 41.075,-4.823 10.882,-4.883 17.994,-16.556 29.424,-20 9.868,-2.999 20.324,0.912 30.456,2.857 15.421,2.978 31.714,1.276 46.223,-4.783 8.896,-3.728 17.73,-9.199 27.356,-8.429 10.578,0.851 18.987,8.936 28.896,12.746 26.587,10.193 57.814,-11.996 84.117,-1.054 7.882,3.283 14.306,9.24 21.46,13.901 11.266,7.376 24.559,11.591 38.015,12.057 8.673,0.304 17.61,-0.871 25.877,1.743 3.87,1.216 7.295,3.161 10.415,5.613 C 13.354,12.665 8.206,3.465 0,0"
         style="fill:#2b0d0d;fill-opacity:1;fill-rule:nonzero;stroke:none"
         transform="matrix(1.3333333,0,0,-1.3333333,7168.8539,999.13213)"
         clip-path="url(#clipPath915)"
         id="path916" />
    </g>
    <path
       id="path918"
       d="m 0,0 z m 116.146,-91.573 c 0.802,0 1.62,-0.05 2.454,-0.153 8.496,-1.18 14.402,-6.8 20.115,-12.235 7.59,-7.223 14.761,-14.046 28.728,-14.046 13.286,0 20.908,7.248 28.281,14.257 6.459,6.142 13.137,12.492 22.786,12.492 7.614,0 15.295,-3.388 24.188,-7.311 11.945,-5.268 25.481,-11.236 40.247,-8.993 12.775,2.13 17.14,9.905 22.196,18.907 3.855,6.865 8.224,14.644 16.825,18.247 9.916,4.154 17.406,1.412 23.427,-0.791 5.76,-2.108 9.919,-3.632 17.483,-0.434 4.529,1.914 7.498,7.06 7.939,13.764 0.863,13.092 -7.95,32.781 -35.05,49.325 L -2.377,-2.971 c -11.429,-14.803 -33.153,-49.833 -19.425,-65.522 10.595,-12.11 16.876,-9.734 26.385,-6.139 6.364,2.408 14.287,5.404 22.524,1.407 7.201,-3.495 11.502,-9.023 15.663,-14.369 5.504,-7.075 11.198,-14.391 25.327,-19.558 12.674,-4.561 19.917,0.719 28.305,6.839 5.648,4.121 11.977,8.74 19.744,8.74 m 51.297,-42.645 c -20.448,0 -31.693,10.7 -39.904,18.512 -4.207,4.004 -7.84,7.46 -11.06,7.908 -2.442,0.321 -6.355,-2.571 -10.521,-5.61 -8.993,-6.563 -22.584,-16.484 -43.392,-8.982 -18.536,6.778 -26.66,17.218 -32.591,24.84 -3.432,4.411 -6.143,7.895 -9.945,9.74 -1.825,0.883 -4.887,-0.16 -9.713,-1.984 -10.479,-3.963 -26.314,-9.953 -44.318,10.626 -26.496,30.28 16.565,83.586 21.563,89.565 1.57,1.878 3.895,2.975 6.352,2.906 L 338.2,7.629 c 1.4,-0.023 2.769,-0.407 3.974,-1.116 29.615,-17.407 46.37,-41.872 44.817,-65.447 -0.852,-12.951 -7.508,-23.28 -17.804,-27.632 -13.444,-5.682 -22.647,-2.316 -29.365,0.143 -5.231,1.914 -7.707,2.694 -11.593,1.063 -3.292,-1.379 -5.546,-5.167 -8.954,-11.233 -5.581,-9.939 -13.226,-23.552 -33.777,-26.977 -19.546,-2.975 -36.065,4.313 -49.343,10.169 -6.916,3.05 -13.447,5.931 -17.645,5.931 -3.172,0 -7.085,-3.72 -11.616,-8.028 -8.31,-7.9 -19.69,-18.72 -39.451,-18.72"
       style="fill:#000000;fill-opacity:1;fill-rule:nonzero;stroke:none"
       transform="matrix(1.3333333,0,0,-1.3333333,6680.8187,893.65427)"
       clip-path="url(#clipPath919)" />
    <path
       id="path920"
       d="M 0,0 C 0,47.215 90.58,85.109 202.843,85.109 314.7,85.109 405.687,47.215 405.687,0 c 0,-47.215 -90.582,-85.109 -202.844,-85.109 C 90.58,-85.109 0,-47.215 0,0"
       style="fill:#ad561c;fill-opacity:1;fill-rule:nonzero;stroke:none"
       transform="matrix(1.3333333,0,0,-1.3333333,6642.5361,880.23813)"
       clip-path="url(#clipPath921)" />
    <path
       id="path922"
       d="m 0,0 c -105.559,0 -194.737,-35.263 -194.737,-77.003 0,-41.741 89.178,-77.004 194.737,-77.004 105.559,0 194.737,35.263 194.737,77.004 0,19.045 -19.864,38.284 -54.499,52.783 C 102.929,-8.601 53.125,0 0,0 m 0,-170.219 c -55.376,0 -107.459,9.05 -146.653,25.48 -41.461,17.381 -64.295,41.436 -64.295,67.736 0,26.299 22.834,50.355 64.295,67.735 39.194,16.431 91.277,25.479 146.653,25.479 55.224,0 107.252,-9.047 146.499,-25.477 41.561,-17.399 64.45,-41.455 64.45,-67.737 0,-26.3 -22.834,-50.355 -64.295,-67.736 C 107.46,-161.169 55.376,-170.219 0,-170.219"
       style="fill:#000000;fill-opacity:1;fill-rule:nonzero;stroke:none"
       transform="matrix(1.3333333,0,0,-1.3333333,6912.9932,777.56693)"
       clip-path="url(#clipPath923)" />
    <path
       id="path924"
       d="m 0,0 c 0,0 -37.022,-49.14 -91.147,-79.435 -24.155,-13.536 -51.694,-23.304 -80.894,-23.304 -30.355,0 -57.368,10.315 -80.043,24.317 -48.006,29.606 -76.599,75.788 -76.599,75.788 z"
       style="fill:#ffce00;fill-opacity:1;fill-rule:nonzero;stroke:none"
       transform="matrix(1.3333333,0,0,-1.3333333,7133.9984,843.50453)"
       clip-path="url(#clipPath925)" />
    <g
       opacity="0.199997"
       id="g927"
       clip-path="url(#clipPath928)">
      <path
         d="m 0,0 c 0,0 -37.022,-49.14 -91.147,-79.435 -61.948,-6.545 -116.499,-4.398 -160.937,1.013 -48.006,29.606 -76.599,75.788 -76.599,75.788 z"
         style="fill:#2b0d0d;fill-opacity:1;fill-rule:nonzero;stroke:none"
         transform="matrix(1.3333333,0,0,-1.3333333,7133.9984,837.31107)"
         clip-path="url(#clipPath926)"
         id="path927" />
    </g>
    <path
       id="path929"
       d="m 0,0 h 0.017 z m 15.566,-7.981 c 19.732,-25.939 71.668,-84.018 141.075,-84.018 69.401,0 130.363,59.353 154.526,86.388 z M 156.641,-108.21 c -98.02,0 -160.903,99.697 -163.533,103.942 -1.542,2.49 -1.621,5.618 -0.207,8.184 1.416,2.563 4.104,4.166 7.034,4.189 l 328.683,2.635 c 3.108,0.08 5.917,-1.704 7.305,-4.46 1.388,-2.755 1.09,-6.059 -0.767,-8.524 C 331.897,-6.57 254.194,-108.21 156.641,-108.21"
       style="fill:#000000;fill-opacity:1;fill-rule:nonzero;stroke:none"
       transform="matrix(1.3333333,0,0,-1.3333333,6695.7627,847.00507)"
       clip-path="url(#clipPath930)" />
    <path
       id="path931"
       d="M 0,0 C -1.621,50.255 96.862,90.986 216.623,90.986 335.979,90.986 433.246,50.458 433.246,0 432.841,-67.074 336.384,-90.985 216.623,-90.985 96.66,-90.985 1.824,-67.884 0,0"
       style="fill:#ffad29;fill-opacity:1;fill-rule:nonzero;stroke:none"
       transform="matrix(1.3333333,0,0,-1.3333333,6624.7028,804.04547)"
       clip-path="url(#clipPath932)" />
    <g
       opacity="0.199997"
       id="g934"
       clip-path="url(#clipPath935)">
      <path
         d="m 0,0 c -0.405,-67.074 -96.862,-90.986 -216.623,-90.986 -119.963,0 -214.799,23.101 -216.622,90.986 -0.243,7.274 1.621,14.326 5.349,21.095 23.791,-46.891 107.724,-63.65 209.875,-63.65 103.144,0 189.003,17.731 211.091,65.514 C -2.411,15.644 0,7.943 0,0"
         style="fill:#2b0d0d;fill-opacity:1;fill-rule:nonzero;stroke:none"
         transform="matrix(1.3333333,0,0,-1.3333333,7199.4059,798.1412)"
         clip-path="url(#clipPath933)"
         id="path934" />
    </g>
    <g
       opacity="0.600006"
       id="g937"
       clip-path="url(#clipPath938)">
      <path
         d="m 0,0 c 9.91,45.889 103.49,81.693 215.775,81.693 112.839,0 205.918,-36.225 215.748,-82.816 0.548,3.308 0.854,6.726 0.875,10.271 0,50.457 -97.267,90.986 -216.623,90.986 C 96.015,100.134 -2.469,59.403 -0.848,9.148 -0.763,6.003 -0.477,2.955 0,0"
         style="fill:#ffffff;fill-opacity:1;fill-rule:nonzero;stroke:none"
         transform="matrix(1.3333333,0,0,-1.3333333,6630.4736,812.77267)"
         clip-path="url(#clipPath936)"
         id="path937" />
    </g>
    <path
       id="path939"
       d="m 0,0 c -85.578,0 -164.091,-21.703 -195.367,-54.005 -9.039,-9.336 -13.465,-18.963 -13.154,-28.613 0,-0.014 0,-0.029 0,-0.044 1.846,-68.681 114.414,-83.097 208.521,-83.097 77.688,0 208.082,10.773 208.517,82.928 C 208.517,-37.954 113.027,0 0,0 m 0,-181.971 c -65.926,0 -118.21,6.908 -155.401,20.531 -45.039,16.497 -68.363,42.852 -69.325,78.326 -0.448,14.196 5.511,27.784 17.712,40.385 34.668,35.806 115.926,58.941 207.014,58.941 126.016,0 224.729,-43.526 224.729,-99.091 -0.213,-35.252 -23.383,-61.564 -68.867,-78.255 C 118.188,-174.96 65.749,-181.971 0,-181.971"
       style="fill:#000000;fill-opacity:1;fill-rule:nonzero;stroke:none"
       transform="matrix(1.3333333,0,0,-1.3333333,6913.5335,693.53893)"
       clip-path="url(#clipPath940)" />
    <path
       id="path941"
       d="m 0,0 c 5.481,0 7.764,2.049 8.477,4.098 1.07,2.95 0.41,4.918 -6.637,4.918 H -2.71 L -6.656,0 Z m -23.682,-23.727 h -10.623 c -3.621,0 -5.995,1.024 -5.222,2.254 l 10.144,16.146 c -2.647,0.983 -5.728,2.131 -4.673,3.647 0.884,1.27 3.447,2.008 5.989,2.909 1.232,0.41 2.456,0.82 3.577,1.23 l 7.545,12.007 c 0.772,1.229 3.46,2.254 5.913,2.254 4.417,0 9.174,0.204 13.743,0.204 2.855,0 5.683,-0.081 8.3,-0.327 C 22.043,15.572 27.2,10.778 27.6,5.491 27.582,5.327 27.653,5.123 27.636,4.958 27.614,4.754 27.597,4.59 27.481,4.385 26.314,-0.123 21.842,-3.77 12.46,-6.106 c 4.567,-4.467 9.692,-8.933 15.161,-13.359 1.442,-1.025 0.858,-2.541 -2.53,-3.074 -3.298,-0.532 -6.502,-1.065 -9.725,-1.557 -1.129,-0.205 -2.357,-0.286 -3.693,-0.286 -2.184,0 -4.288,0.327 -5.193,1.065 -5.843,5.204 -10.955,10.409 -15.456,15.613 h -1.052 l -6.028,-13.769 c -0.538,-1.23 -4.004,-2.254 -7.626,-2.254"
       style="fill:#160000;fill-opacity:1;fill-rule:nonzero;stroke:none"
       transform="matrix(1.3333333,0,0,-1.3333333,6873.9541,765.48427)"
       clip-path="url(#clipPath942)" />
    <path
       id="path943"
       d="m 0,0 h 7.498 c 10.51,0.164 9.539,7.54 2.233,9.548 -2.377,0.656 -5.739,0.82 -9.159,0.82 H -2.02 Z m -3.504,17.99 c 5.393,0 9.979,0.45 8.883,3.524 -1.118,3.196 -4.258,3.524 -10.263,3.565 z m -20.527,7.089 c -2.685,0 -4.856,1.025 -4.777,2.254 l 0.211,3.278 c 0.079,1.23 2.194,2.254 4.654,2.254 4.672,0 10.538,0.328 16.254,0.328 4.981,0 9.967,-0.287 14.237,-1.27 C 21.46,28.604 29.017,20.039 21.385,14.752 38.031,9.548 46.099,-1.721 27.562,-6.024 20.11,-7.622 10.18,-8.032 -0.014,-8.032 c -8.494,0 -17.004,0.287 -24.387,0.287 -3.634,0 -6.594,1.024 -6.515,2.254 l 0.208,3.237 c 0.079,1.23 2.984,2.254 6.395,2.254 h 1.817 l -0.041,9.835 c -3.408,1.024 -7.561,2.172 -7.453,3.77 0.085,1.27 2.203,2.008 4.298,2.91 1.083,0.45 2.058,0.942 3.122,1.393 l -0.03,7.171 z"
       style="fill:#160000;fill-opacity:1;fill-rule:nonzero;stroke:none"
       transform="matrix(1.3333333,0,0,-1.3333333,6955.0635,787.28507)"
       clip-path="url(#clipPath944)" />
    <path
       id="path945"
       d="m 0,0 c 0,0 -106.352,53.893 -94.467,142.623 11.066,84.221 97.541,105.942 135.861,75 38.319,-31.353 28.483,-64.55 11.475,-88.32 C 31.353,98.155 -29.303,81.967 0,0"
       style="fill:#1a1819;fill-opacity:1;fill-rule:nonzero;stroke:none"
       transform="matrix(1.3333333,0,0,-1.3333333,6657.596,1102.3697)"
       clip-path="url(#clipPath946)" />
    <g
       opacity="0.600006"
       id="g948"
       clip-path="url(#clipPath949)">
      <path
         d="m 0,0 c 10.902,83.032 95.123,105.328 134.221,76.27 0.553,-0.41 1.107,-0.84 1.639,-1.27 7.676,-6.281 13.392,-12.635 17.534,-18.973 -2.371,2.393 -4.967,4.783 -7.874,7.16 -0.532,0.43 -1.085,0.86 -1.638,1.271 C 104.783,93.515 20.562,71.22 9.66,-11.813 c -3.606,-26.988 3.709,-50.758 15.656,-70.758 2.591,-4.343 5.402,-8.506 8.364,-12.488 -6.547,7.335 -12.74,15.445 -18.025,24.301 C 3.709,-50.758 -3.606,-26.988 0,0"
         style="fill:#ffffff;fill-opacity:1;fill-rule:nonzero;stroke:none"
         transform="matrix(1.3333333,0,0,-1.3333333,6531.6364,912.20827)"
         clip-path="url(#clipPath947)"
         id="path948" />
    </g>
    <path
       id="path950"
       d="m 0,0 c -10.036,0 -20.566,-1.965 -30.606,-5.98 -30.421,-12.166 -50.554,-39.587 -55.238,-75.233 -8.097,-60.451 44.32,-104.547 72.698,-123.685 -10.908,51.818 16.654,75.784 39.292,95.469 8.022,6.976 15.6,13.565 20.474,20.623 21.041,29.407 17.77,54.661 -9.921,77.317 C 27.312,-3.909 14.149,0 0,0 m 0.495,-230.964 c -1.261,0 -2.53,0.29 -3.704,0.885 -1.132,0.573 -28.009,14.333 -53.718,39.491 -34.765,34.02 -50.385,72.587 -45.168,111.531 5.476,41.676 29.315,73.867 65.401,88.298 29.989,11.992 62.856,8.848 83.734,-8.01 34.247,-28.02 38.846,-63.332 12.99,-99.465 -5.97,-8.645 -14.303,-15.892 -23.128,-23.565 -23.926,-20.806 -48.668,-42.322 -28.687,-98.209 1.13,-3.16 0.219,-6.689 -2.298,-8.908 -1.53,-1.349 -3.467,-2.048 -5.422,-2.048"
       style="fill:#000000;fill-opacity:1;fill-rule:nonzero;stroke:none"
       transform="matrix(1.3333333,0,0,-1.3333333,6656.9345,805.34627)"
       clip-path="url(#clipPath951)" />
    <path
       id="path952"
       d="m 0,0 c -27.315,-45.779 -78.812,-71.865 -78.812,-71.865 29.304,81.968 -31.352,98.361 -52.868,129.303 -17.008,23.77 -26.844,56.967 11.475,88.32 0.533,0.43 1.086,0.86 1.64,1.27 39.098,29.057 123.319,6.763 134.22,-76.27 C 19.262,43.77 11.946,20 0,0"
       style="fill:#1a1819;fill-opacity:1;fill-rule:nonzero;stroke:none"
       transform="matrix(1.3333333,0,0,-1.3333333,7269.7731,1008.2011)"
       clip-path="url(#clipPath953)" />
    <g
       opacity="0.600006"
       id="g955"
       clip-path="url(#clipPath956)">
      <path
         d="m 0,0 c -10.902,83.033 -95.123,105.328 -134.222,76.271 -0.552,-0.411 -1.106,-0.841 -1.638,-1.271 -7.677,-6.281 -13.392,-12.635 -17.534,-18.973 2.371,2.394 4.967,4.783 7.873,7.16 0.533,0.43 1.086,0.861 1.639,1.271 39.099,29.057 123.32,6.762 134.221,-76.271 3.607,-26.987 -3.709,-50.758 -15.655,-70.758 -2.591,-4.342 -5.402,-8.505 -8.364,-12.488 6.546,7.336 12.74,15.445 18.024,24.301 C -3.71,-50.758 3.606,-26.988 0,0"
         style="fill:#ffffff;fill-opacity:1;fill-rule:nonzero;stroke:none"
         transform="matrix(1.3333333,0,0,-1.3333333,7290.6624,915.1828)"
         clip-path="url(#clipPath954)"
         id="path955" />
    </g>
    <path
       id="path957"
       d="m 0,0 c -14.163,0 -27.339,-3.915 -36.756,-11.52 -27.649,-22.624 -30.921,-47.877 -9.959,-77.173 4.913,-7.064 12.444,-13.603 20.416,-20.527 22.712,-19.725 50.366,-43.744 39.43,-95.676 28.38,19.137 80.796,63.229 72.7,123.665 C 81.145,-45.564 61.012,-18.143 30.592,-5.978 20.561,-1.966 10.031,0 0,0 m -0.51,-230.962 c -1.956,0 -3.892,0.699 -5.423,2.048 -2.516,2.219 -3.426,5.748 -2.296,8.908 20.017,55.996 -4.81,77.558 -28.82,98.409 -8.765,7.613 -17.045,14.804 -23.06,23.455 -25.791,36.043 -21.193,71.356 13.013,99.343 20.918,16.892 53.784,20.037 83.775,8.042 36.086,-14.431 59.925,-46.622 65.403,-88.318 5.214,-38.924 -10.405,-77.49 -45.171,-111.511 -25.708,-25.157 -52.586,-38.917 -53.718,-39.491 -1.173,-0.594 -2.442,-0.885 -3.703,-0.885"
       style="fill:#000000;fill-opacity:1;fill-rule:nonzero;stroke:none"
       transform="matrix(1.3333333,0,0,-1.3333333,7165.3812,806.9888)"
       clip-path="url(#clipPath958)" />
    <path
       id="path959"
       d="M 0,0 C -24.925,57.753 -6.281,120.977 41.339,141.443 88.757,161.91 147.726,131.919 172.447,74.167 197.372,16.414 178.729,-46.81 131.109,-67.276 83.691,-87.541 24.925,-57.347 0,0"
       style="fill:#1a1819;fill-opacity:1;fill-rule:nonzero;stroke:none"
       transform="matrix(1.3333333,0,0,-1.3333333,6462.3317,1235.8052)"
       clip-path="url(#clipPath960)" />
    <g
       opacity="0.600006"
       id="g962"
       clip-path="url(#clipPath963)">
      <path
         d="m 0,0 c 47.418,20.467 106.387,-9.524 131.108,-67.277 0.996,-2.307 1.898,-4.625 2.755,-6.947 C 107.15,-22.328 51.875,3.594 6.948,-15.797 -38.69,-35.412 -57.686,-94.298 -37.249,-150.003 c -1.44,2.786 -2.819,5.628 -4.09,8.56 C -66.264,-83.69 -47.62,-20.467 0,0"
         style="fill:#ffffff;fill-opacity:1;fill-rule:nonzero;stroke:none"
         transform="matrix(1.3333333,0,0,-1.3333333,6517.4501,1047.2141)"
         clip-path="url(#clipPath961)"
         id="path962" />
    </g>
    <path
       id="path964"
       d="m 0,0 c 23.153,-53.261 77.205,-81.545 120.487,-63.049 18.055,7.759 32.398,23.072 40.37,43.11 10.534,26.467 9.334,58.421 -3.289,87.668 -12.524,29.26 -34.924,52.098 -61.463,62.68 -20.059,7.999 -41.009,8.129 -58.99,0.366 C 19.033,123.004 4.691,107.692 -3.282,87.655 -13.813,61.191 -12.616,29.243 0,0 m 92.668,-84.885 c -42.776,0 -86.553,30.144 -107.538,78.428 -0.002,0.007 -0.006,0.013 -0.008,0.02 -14.315,33.168 -15.578,69.649 -3.467,100.086 9.575,24.064 26.995,42.538 49.047,52.015 21.955,9.478 47.32,9.409 71.408,-0.196 30.511,-12.167 56.154,-38.168 70.352,-71.337 14.307,-33.147 15.57,-69.627 3.458,-100.065 -9.575,-24.065 -26.994,-42.537 -49.047,-52.015 -11.005,-4.704 -22.572,-6.936 -34.205,-6.936"
       style="fill:#000000;fill-opacity:1;fill-rule:nonzero;stroke:none"
       transform="matrix(1.3333333,0,0,-1.3333333,6472.2471,1231.5039)"
       clip-path="url(#clipPath965)" />
    <path
       id="path966"
       d="M 0,0 C -6.484,27.762 4.66,54.51 25.532,59.171 45.999,63.832 67.885,45.189 74.571,17.225 81.056,-10.538 69.911,-37.286 49.444,-41.947 28.572,-46.81 6.687,-27.762 0,0"
       style="fill:#ffffff;fill-opacity:1;fill-rule:nonzero;stroke:none"
       transform="matrix(1.3333333,0,0,-1.3333333,6487.7301,1190.4133)"
       clip-path="url(#clipPath967)" />
    <path
       id="path968"
       d="M 0,0 C 24.925,57.752 6.281,120.977 -41.339,141.443 -88.757,161.91 -147.726,131.919 -172.447,74.167 -197.372,16.414 -178.729,-46.81 -131.108,-67.277 -83.69,-87.541 -24.925,-57.55 0,0"
       style="fill:#1a1819;fill-opacity:1;fill-rule:nonzero;stroke:none"
       transform="matrix(1.3333333,0,0,-1.3333333,7367.7952,1240.9452)"
       clip-path="url(#clipPath969)" />
    <g
       opacity="0.600006"
       id="g971"
       clip-path="url(#clipPath972)">
      <path
         d="m 0,0 c -47.418,20.467 -106.387,-9.524 -131.108,-67.277 -0.996,-2.307 -1.897,-4.625 -2.755,-6.947 26.713,51.896 81.988,77.819 126.916,58.427 45.638,-19.615 64.634,-78.5 44.196,-134.206 1.44,2.786 2.82,5.628 4.09,8.56 C 66.264,-83.69 47.62,-20.467 0,0"
         style="fill:#ffffff;fill-opacity:1;fill-rule:nonzero;stroke:none"
         transform="matrix(1.3333333,0,0,-1.3333333,7312.6768,1052.5064)"
         clip-path="url(#clipPath970)"
         id="path971" />
    </g>
    <path
       id="path973"
       d="M 0,0 C 6.485,27.762 -4.66,54.51 -25.532,59.171 -45.999,63.832 -67.884,45.189 -74.571,17.225 -81.056,-10.537 -69.91,-37.286 -49.443,-41.947 -28.369,-46.81 -6.484,-28.167 0,0"
       style="fill:#ffffff;fill-opacity:1;fill-rule:nonzero;stroke:none"
       transform="matrix(1.3333333,0,0,-1.3333333,7342.3968,1195.554)"
       clip-path="url(#clipPath974)" />
    <path
       id="path975"
       d="m 0,0 c -7.973,20.037 -22.315,35.35 -40.397,43.12 -17.981,7.763 -38.93,7.633 -58.991,-0.366 -26.538,-10.582 -48.937,-33.42 -61.463,-62.68 -12.623,-29.247 -13.821,-61.2 -3.289,-87.669 7.974,-20.037 22.316,-35.35 40.37,-43.11 43.283,-18.495 97.334,9.789 120.488,63.05 C 9.334,-58.413 10.531,-26.463 0,0 m -130.155,-165.604 c -22.052,9.478 -39.472,27.95 -49.047,52.016 -12.111,30.438 -10.848,66.917 3.458,100.064 14.198,33.169 39.841,59.17 70.352,71.337 24.087,9.605 49.453,9.673 71.408,0.196 22.052,-9.477 39.471,-27.95 49.047,-52.015 12.112,-30.437 10.848,-66.918 -3.466,-100.087 -0.003,-0.007 -0.006,-0.012 -0.009,-0.019 -20.985,-48.284 -64.762,-78.428 -107.537,-78.428 -11.634,0 -23.201,2.232 -34.206,6.936"
       style="fill:#000000;fill-opacity:1;fill-rule:nonzero;stroke:none"
       transform="matrix(1.3333333,0,0,-1.3333333,7359.1689,1117.3391)"
       clip-path="url(#clipPath976)" />
    <path
       id="path977"
       d="m 0,0 c -4.068,0 -7.872,-0.237 -11.219,-0.572 -32.785,-3.278 -53.114,-34.779 -71.052,-62.572 -5.349,-8.29 -10.403,-16.12 -15.52,-22.773 -22.33,-29.028 -16.477,-51.779 -7.094,-59.99 7.76,-6.788 30.863,-9.206 58.86,-6.158 30.337,3.304 60.89,12.386 81.729,24.294 47.344,27.054 21.696,90.87 18.616,98.057 C 43.805,-5.177 19.025,0 0,0 m -69.078,-159.878 c -18.133,0 -32.92,2.867 -40.058,9.113 -7.066,6.183 -10.903,16.309 -10.527,27.782 0.43,13.134 6.224,27.313 16.755,41.003 4.955,6.441 9.937,14.162 15.214,22.337 18.727,29.018 39.953,61.908 75.833,65.496 48.347,4.833 65.94,-18.615 72.115,-33.024 3.312,-7.729 30.855,-76.375 -21.348,-106.205 -29.012,-16.58 -74.27,-26.502 -107.984,-26.502"
       style="fill:#1a1819;fill-opacity:1;fill-rule:nonzero;stroke:none"
       transform="matrix(1.3333333,0,0,-1.3333333,6743.1247,406.84107)"
       clip-path="url(#clipPath978)" />
    <path
       id="path979"
       d="m 0,0 c -14.34,19.872 -41.263,33.381 -65.721,27.679 -21.971,-5.123 -40.848,-24.181 -51.952,-43.221 -0.095,-0.163 -0.175,-0.333 -0.243,-0.511 -1.441,-3.773 3.947,-6.358 6.317,-3.087 11.309,15.606 27.512,29.625 45.878,33.907 21.519,5.017 44.946,-4.837 60.033,-20.812 2.057,-2.179 5.71,-1.064 6.144,1.901 C 0.699,-2.486 0.712,-0.986 0,0"
       style="fill:#000000;fill-opacity:1;fill-rule:nonzero;stroke:none"
       transform="matrix(1.3333333,0,0,-1.3333333,7187.3083,516.0852)"
       clip-path="url(#clipPath980)" />
    <path
       id="path981"
       d="m 0,0 c -14.268,-2.912 -26.887,-10.035 -36.762,-20.733 -0.844,-0.915 0.522,-2.288 1.369,-1.37 9.667,10.474 21.947,17.386 35.908,20.235 C 1.735,-1.619 1.219,0.249 0,0"
       style="fill:#ffffff;fill-opacity:1;fill-rule:nonzero;stroke:none"
       transform="matrix(1.3333333,0,0,-1.3333333,7105.014,484.41013)"
       clip-path="url(#clipPath982)" />
    <path
       id="path983"
       d="M 0,0 C 0.108,0.107 0.216,0.215 0.323,0.323 1.206,1.205 -0.163,2.575 -1.046,1.692 -1.154,1.584 -1.262,1.477 -1.369,1.369 -2.252,0.487 -0.883,-0.883 0,0"
       style="fill:#ffffff;fill-opacity:1;fill-rule:nonzero;stroke:none"
       transform="matrix(1.3333333,0,0,-1.3333333,7113.152,485.68813)"
       clip-path="url(#clipPath984)" />
    <path
       id="path985"
       d="m 0,0 c 14.34,19.872 41.263,33.381 65.721,27.679 21.971,-5.123 40.848,-24.181 51.952,-43.221 0.095,-0.163 0.176,-0.333 0.243,-0.511 1.442,-3.773 -3.947,-6.358 -6.316,-3.087 C 100.291,-3.534 84.088,10.485 65.721,14.767 44.203,19.784 20.775,9.93 5.689,-6.045 3.632,-8.224 -0.022,-7.109 -0.456,-4.144 -0.698,-2.486 -0.711,-0.986 0,0"
       style="fill:#000000;fill-opacity:1;fill-rule:nonzero;stroke:none"
       transform="matrix(1.3333333,0,0,-1.3333333,6640.3864,516.0852)"
       clip-path="url(#clipPath986)" />
    <path
       id="path987"
       d="m 0,0 c 13.959,-2.849 26.242,-9.766 35.906,-20.235 0.848,-0.918 2.215,0.454 1.37,1.369 C 27.4,-8.166 14.782,-1.044 0.515,1.868 -0.702,2.116 -1.223,0.25 0,0"
       style="fill:#ffffff;fill-opacity:1;fill-rule:nonzero;stroke:none"
       transform="matrix(1.3333333,0,0,-1.3333333,6723.0127,486.90027)"
       clip-path="url(#clipPath988)" />
    <path
       id="path989"
       d="m 0,0 c -0.107,0.108 -0.215,0.215 -0.322,0.323 -0.883,0.883 -2.252,-0.487 -1.369,-1.369 0.107,-0.108 0.214,-0.216 0.322,-0.323 C -0.486,-2.252 0.883,-0.883 0,0"
       style="fill:#ffffff;fill-opacity:1;fill-rule:nonzero;stroke:none"
       transform="matrix(1.3333333,0,0,-1.3333333,6717.3851,483.86253)"
       clip-path="url(#clipPath990)" />
    <path
       id="path991"
       d="m 0,0 83.908,84.521 c -1.599,0.988 -26.439,45.689 -41.086,63.735 -6.765,8.337 -9.668,18.002 -9.731,28.66 -0.02,3.321 0.64,6.732 -0.66,10.668 -10.386,-7.698 -15.52,-17.997 -18.625,-31.375 -4.383,11.225 -6.234,21.111 -5.8,31.366 0.443,10.51 4.5,19.953 10.637,29.49 -4.575,-0.939 -7.16,-2.748 -9.747,-4.562 -14.611,-10.238 -22.363,-24.936 -26.966,-41.635 -3.271,-11.866 -4.5,-24.046 -5.29,-36.355 -5,16.714 -9.154,33.535 -10.551,52.334 -5.632,-3.589 -9.092,-7.774 -11.089,-13.035 -1.772,-4.672 -3.452,-9.442 -4.5,-14.314 -3.188,-14.823 -8.422,-28.795 -15.807,-42.048 -4.748,-8.52 -9.406,-17.187 -11.754,-26.74 -0.45,-1.834 -1.127,-3.378 -2.007,-4.747 z"
       style="fill:#1a1819;fill-opacity:1;fill-rule:nonzero;stroke:none"
       transform="matrix(1.3333333,0,0,-1.3333333,6928.9788,382.02853)"
       clip-path="url(#clipPath992)" />
  </g>
</svg>
