<?xml version="1.0" encoding="UTF-8" standalone="no"?>
<!-- Created with Inkscape (http://www.inkscape.org/) -->

<svg
   version="1.1"
   id="svg1"
   width="1294.9082"
   height="311.67462"
   viewBox="0 0 1294.9082 311.67462"
   sodipodi:docname="logo_rokku_final.pdf"
   xmlns:inkscape="http://www.inkscape.org/namespaces/inkscape"
   xmlns:sodipodi="http://sodipodi.sourceforge.net/DTD/sodipodi-0.dtd"
   xmlns="http://www.w3.org/2000/svg"
   xmlns:svg="http://www.w3.org/2000/svg">
  <defs
     id="defs1">
    <clipPath
       clipPathUnits="userSpaceOnUse"
       id="clipPath1042">
      <path
         d="M 0,667.947 H 1080 V 0 H 0 Z"
         transform="translate(-102.4887,-339.96691)"
         id="path1042" />
    </clipPath>
    <clipPath
       clipPathUnits="userSpaceOnUse"
       id="clipPath1044">
      <path
         d="M 0,667.947 H 1080 V 0 H 0 Z"
         transform="translate(-176.86268,-330.98601)"
         id="path1044" />
    </clipPath>
    <clipPath
       clipPathUnits="userSpaceOnUse"
       id="clipPath1046">
      <path
         d="M 0,667.947 H 1080 V 0 H 0 Z"
         transform="translate(-269.57663,-383.22531)"
         id="path1046" />
    </clipPath>
    <clipPath
       clipPathUnits="userSpaceOnUse"
       id="clipPath1048">
      <path
         d="M 0,667.947 H 1080 V 0 H 0 Z"
         transform="translate(-352.55018,-383.22531)"
         id="path1048" />
    </clipPath>
    <clipPath
       clipPathUnits="userSpaceOnUse"
       id="clipPath1050">
      <path
         d="M 0,667.947 H 1080 V 0 H 0 Z"
         transform="translate(-430.08541,-392.07971)"
         id="path1050" />
    </clipPath>
    <clipPath
       clipPathUnits="userSpaceOnUse"
       id="clipPath1052">
      <path
         d="M 0,667.947 H 1080 V 0 H 0 Z"
         transform="translate(-558.84714,-289.4992)"
         id="path1052" />
    </clipPath>
    <clipPath
       clipPathUnits="userSpaceOnUse"
       id="clipPath1054">
      <path
         d="M 0,667.947 H 1080 V 0 H 0 Z"
         transform="translate(-632.33439,-392.07971)"
         id="path1054" />
    </clipPath>
    <clipPath
       clipPathUnits="userSpaceOnUse"
       id="clipPath1056">
      <path
         d="M 0,667.947 H 1080 V 0 H 0 Z"
         transform="translate(-737.57102,-339.96691)"
         id="path1056" />
    </clipPath>
    <clipPath
       clipPathUnits="userSpaceOnUse"
       id="clipPath1058">
      <path
         d="M 0,667.947 H 1080 V 0 H 0 Z"
         transform="translate(-814.85177,-320.48791)"
         id="path1058" />
    </clipPath>
    <clipPath
       clipPathUnits="userSpaceOnUse"
       id="clipPath1060">
      <path
         d="M 0,667.947 H 1080 V 0 H 0 Z"
         transform="translate(-899.21852,-288.99331)"
         id="path1060" />
    </clipPath>
    <clipPath
       clipPathUnits="userSpaceOnUse"
       id="clipPath1062">
      <path
         d="M 0,667.947 H 1080 V 0 H 0 Z"
         transform="translate(-986.87252,-339.96691)"
         id="path1062" />
    </clipPath>
    <clipPath
       clipPathUnits="userSpaceOnUse"
       id="clipPath1064">
      <path
         d="M 0,667.947 H 1080 V 0 H 0 Z"
         transform="translate(-96.908627,-345.54701)"
         id="path1064" />
    </clipPath>
    <clipPath
       clipPathUnits="userSpaceOnUse"
       id="clipPath1066">
      <path
         d="M 0,667.947 H 1080 V 0 H 0 Z"
         transform="translate(-171.28358,-336.56611)"
         id="path1066" />
    </clipPath>
    <clipPath
       clipPathUnits="userSpaceOnUse"
       id="clipPath1068">
      <path
         d="M 0,667.947 H 1080 V 0 H 0 Z"
         transform="translate(-263.99753,-388.80481)"
         id="path1068" />
    </clipPath>
    <clipPath
       clipPathUnits="userSpaceOnUse"
       id="clipPath1070">
      <path
         d="M 0,667.947 H 1080 V 0 H 0 Z"
         transform="translate(-346.97011,-388.80481)"
         id="path1070" />
    </clipPath>
    <clipPath
       clipPathUnits="userSpaceOnUse"
       id="clipPath1072">
      <path
         d="M 0,667.947 H 1080 V 0 H 0 Z"
         transform="translate(-424.50631,-397.65981)"
         id="path1072" />
    </clipPath>
    <clipPath
       clipPathUnits="userSpaceOnUse"
       id="clipPath1074">
      <path
         d="M 0,667.947 H 1080 V 0 H 0 Z"
         transform="translate(-553.26804,-295.07881)"
         id="path1074" />
    </clipPath>
    <clipPath
       clipPathUnits="userSpaceOnUse"
       id="clipPath1076">
      <path
         d="M 0,667.947 H 1080 V 0 H 0 Z"
         transform="translate(-626.75432,-397.65981)"
         id="path1076" />
    </clipPath>
    <clipPath
       clipPathUnits="userSpaceOnUse"
       id="clipPath1078">
      <path
         d="M 0,667.947 H 1080 V 0 H 0 Z"
         transform="translate(-731.99102,-345.54701)"
         id="path1078" />
    </clipPath>
    <clipPath
       clipPathUnits="userSpaceOnUse"
       id="clipPath1080">
      <path
         d="M 0,667.947 H 1080 V 0 H 0 Z"
         transform="translate(-809.27327,-326.06751)"
         id="path1080" />
    </clipPath>
    <clipPath
       clipPathUnits="userSpaceOnUse"
       id="clipPath1082">
      <path
         d="M 0,667.947 H 1080 V 0 H 0 Z"
         transform="translate(-893.63777,-294.57291)"
         id="path1082" />
    </clipPath>
    <clipPath
       clipPathUnits="userSpaceOnUse"
       id="clipPath1084">
      <path
         d="M 0,667.947 H 1080 V 0 H 0 Z"
         transform="translate(-981.29327,-345.54701)"
         id="path1084" />
    </clipPath>
    <clipPath
       clipPathUnits="userSpaceOnUse"
       id="clipPath1086">
      <path
         d="M 0,667.947 H 1080 V 0 H 0 Z"
         id="path1086" />
    </clipPath>
    <clipPath
       clipPathUnits="userSpaceOnUse"
       id="clipPath1088">
      <path
         d="M 0,667.947 H 1080 V 0 H 0 Z"
         id="path1088" />
    </clipPath>
  </defs>
  <sodipodi:namedview
     id="namedview1"
     pagecolor="#ffffff"
     bordercolor="#000000"
     borderopacity="0.25"
     inkscape:showpageshadow="2"
     inkscape:pageopacity="0.0"
     inkscape:pagecheckerboard="0"
     inkscape:deskcolor="#d1d1d1">
    <inkscape:page
       x="-4.0739102e-05"
       y="2.0215493e-06"
       width="1294.9082"
       height="311.67462"
       id="page2"
       margin="0"
       bleed="0" />
  </sodipodi:namedview>
  <g
     id="layer-MC0"
     inkscape:groupmode="layer"
     inkscape:label="Layer 1"
     transform="translate(-9186.0665,-289.46002)">
    <path
       id="path1041"
       d="m 0,0 c 7.084,0 9.234,6.324 9.36,12.648 0.253,9.108 -1.517,15.18 -11.51,15.18 H -8.601 V 0 Z m -15.557,-73.235 h -11.131 c -3.795,0 -6.957,3.161 -6.957,6.956 v 49.836 c -4.047,3.035 -8.854,6.577 -8.854,11.257 0,3.921 2.656,6.198 5.186,8.981 1.265,1.264 2.53,2.529 3.668,3.795 v 37.06 c 0,3.795 3.162,6.956 6.957,6.956 6.831,0 14.04,0.633 21.124,0.633 4.426,0 8.853,-0.254 13.027,-1.012 17.329,-3.162 26.057,-17.961 27.448,-34.278 0,-0.506 0.127,-1.138 0.127,-1.644 0,-0.633 0,-1.138 -0.127,-1.77 -0.886,-13.914 -5.945,-25.172 -16.95,-32.381 6.578,-13.787 13.282,-27.574 19.859,-41.235 1.645,-3.162 1.139,-7.842 -2.403,-9.487 -3.416,-1.643 -6.703,-3.288 -9.992,-4.806 -1.14,-0.632 -2.404,-0.885 -3.795,-0.885 -2.276,0 -4.554,1.011 -5.692,3.288 -7.842,16.064 -15.557,32.128 -23.273,48.191 h -1.266 v -42.499 c 0,-3.795 -3.162,-6.956 -6.956,-6.956"
       style="fill:#ffad29;fill-opacity:1;fill-rule:nonzero;stroke:none"
       transform="matrix(1.3333333,0,0,-1.3333333,9250.1716,437.3068)"
       clip-path="url(#clipPath1042)" />
    <path
       id="path1043"
       d="m 0,0 c 0,-8.222 -2.782,-39.463 9.487,-41.74 0.759,-0.126 1.644,-0.253 2.404,-0.253 14.04,0 12.395,26.942 12.395,36.429 0,10.877 3.795,41.233 -12.142,42.373 C -1.896,35.669 0,9.866 0,0 m -25.044,8.348 v 0.381 l -0.254,-0.253 c 0.127,0 0.127,-0.128 0.254,-0.128 m 35.416,-74.5 c -29.598,2.656 -35.163,32.886 -35.796,58.183 -4.048,3.036 -8.853,6.578 -8.853,11.258 0,3.921 2.656,6.198 5.186,8.854 1.644,1.771 3.288,3.542 4.806,5.06 2.909,22.135 11.889,43.763 37.313,43.763 25.045,0 33.014,-22.008 35.543,-43.258 2.151,-2.276 4.048,-4.932 6.199,-7.589 1.896,-2.403 3.415,-4.553 3.289,-7.841 0,-4.934 -4.808,-8.476 -8.476,-11.89 -0.759,-24.792 -6.957,-54.01 -35.669,-56.54 -0.379,-0.126 -0.886,-0.126 -1.392,-0.126 h -0.758 c -0.507,0 -1.012,0 -1.392,0.126"
       style="fill:#ffad29;fill-opacity:1;fill-rule:nonzero;stroke:none"
       transform="matrix(1.3333333,0,0,-1.3333333,9349.3369,449.28133)"
       clip-path="url(#clipPath1044)" />
    <path
       id="path1045"
       d="m 0,0 v -26.562 c 6.957,10.624 13.914,21.376 20.744,32.127 1.392,2.024 3.668,3.416 6.071,3.416 1.139,0 2.277,-0.38 3.289,-1.012 3.036,-1.898 5.945,-3.669 8.854,-5.566 3.036,-1.898 4.553,-6.198 2.529,-9.36 -9.359,-14.293 -18.592,-28.585 -27.826,-42.878 11.257,-17.582 22.388,-35.164 33.645,-52.873 2.024,-3.161 0.633,-7.461 -2.403,-9.359 -3.035,-1.771 -6.198,-3.668 -9.233,-5.565 -1.013,-0.633 -2.151,-0.886 -3.289,-0.886 -2.403,0 -4.68,1.265 -6.071,3.415 -8.728,14.04 -17.456,28.08 -26.31,42.247 v -36.681 c 0,-3.795 -3.036,-6.83 -6.829,-6.83 h -11.005 c -3.669,0 -6.83,3.035 -6.83,6.83 v 48.444 c -4.048,2.909 -8.603,6.324 -8.603,10.878 0,3.921 2.658,6.197 5.187,8.854 1.139,1.264 2.277,2.403 3.416,3.669 V 0 c 0,3.668 3.161,6.831 6.83,6.831 H -6.829 C -3.036,6.831 0,3.668 0,0"
       style="fill:#ffad29;fill-opacity:1;fill-rule:nonzero;stroke:none"
       transform="matrix(1.3333333,0,0,-1.3333333,9472.9555,379.62893)"
       clip-path="url(#clipPath1046)" />
    <path
       id="path1047"
       d="m 0,0 v -26.562 c 6.957,10.624 13.913,21.376 20.744,32.127 1.391,2.024 3.667,3.416 6.071,3.416 1.138,0 2.278,-0.38 3.289,-1.012 3.036,-1.898 5.945,-3.669 8.854,-5.566 3.035,-1.898 4.554,-6.198 2.53,-9.36 -9.361,-14.293 -18.593,-28.585 -27.828,-42.878 11.258,-17.582 22.389,-35.164 33.647,-52.873 2.023,-3.161 0.631,-7.461 -2.404,-9.359 -3.036,-1.771 -6.198,-3.668 -9.234,-5.565 -1.011,-0.633 -2.149,-0.886 -3.289,-0.886 -2.402,0 -4.68,1.265 -6.071,3.415 -8.727,14.04 -17.455,28.08 -26.309,42.247 v -36.681 c 0,-3.795 -3.035,-6.83 -6.83,-6.83 h -11.004 c -3.668,0 -6.831,3.035 -6.831,6.83 v 48.444 c -4.048,2.909 -8.601,6.324 -8.601,10.878 0,3.921 2.656,6.197 5.187,8.854 1.138,1.264 2.276,2.403 3.414,3.669 V 0 c 0,3.668 3.163,6.831 6.831,6.831 H -6.83 C -3.035,6.831 0,3.668 0,0"
       style="fill:#ffad29;fill-opacity:1;fill-rule:nonzero;stroke:none"
       transform="matrix(1.3333333,0,0,-1.3333333,9583.5869,379.62893)"
       clip-path="url(#clipPath1048)" />
    <path
       id="path1049"
       d="m 0,0 c 3.795,0 6.957,-3.163 6.957,-6.957 v -46.168 c 0,-7.716 -4.554,-49.708 8.601,-49.708 0.126,0 0.254,0 0.506,0.126 11.383,0.885 9.233,13.407 9.233,21.502 V -6.957 C 25.297,-3.163 28.46,0 32.255,0 h 11.257 c 3.794,0 6.957,-3.163 6.957,-6.957 v -35.416 c 2.782,-2.657 4.932,-5.692 7.336,-8.728 2.023,-2.53 3.541,-4.68 3.541,-7.969 -0.126,-6.071 -7.336,-10.245 -10.877,-14.293 v -1.771 c 0,-22.514 -3.036,-52.238 -32.001,-52.238 -18.974,0 -33.394,10.372 -36.302,29.597 -1.266,7.969 -0.38,16.443 -0.38,24.539 v 2.53 c -4.3,3.162 -9.613,6.83 -9.613,11.763 0,4.047 2.656,6.325 5.313,8.981 1.391,1.644 2.783,3.035 4.3,4.553 v 38.452 c 0,2.023 0.633,3.541 1.772,4.68 1.263,1.518 3.288,2.277 5.185,2.277 z"
       style="fill:#ffad29;fill-opacity:1;fill-rule:nonzero;stroke:none"
       transform="matrix(1.3333333,0,0,-1.3333333,9686.9672,367.82307)"
       clip-path="url(#clipPath1050)" />
    <path
       id="path1051"
       d="m 0,0 h 8.349 c 11.762,0.505 13.66,23.273 5.691,29.471 -2.656,2.023 -6.704,2.53 -10.878,2.53 H 0 Z m 0,55.527 c 7.083,0 13.28,1.391 13.028,10.878 C 12.775,76.271 8.475,77.283 0,77.409 Z m -27.068,21.882 c -3.795,0 -6.956,3.163 -6.956,6.958 v 10.118 c 0,3.794 3.161,6.957 6.956,6.957 7.21,0 16.316,1.011 25.171,1.011 7.715,0 15.304,-0.885 21.376,-3.92 C 39.717,88.288 44.144,61.851 30.862,45.534 48.318,29.471 50.216,-5.313 27.953,-18.594 19.479,-23.527 8.98,-24.792 -1.645,-24.792 c -8.853,0 -17.708,0.886 -25.423,0.886 -3.795,0 -6.956,3.162 -6.956,6.957 v 9.991 c 0,3.795 3.161,6.958 6.956,6.958 h 2.023 v 30.356 c -4.174,3.162 -9.36,6.704 -9.36,11.638 0,3.921 2.657,6.197 5.312,8.98 1.393,1.391 2.656,2.908 4.048,4.3 v 22.135 z"
       style="fill:#ffad29;fill-opacity:1;fill-rule:nonzero;stroke:none"
       transform="matrix(1.3333333,0,0,-1.3333333,9858.6495,504.59707)"
       clip-path="url(#clipPath1052)" />
    <path
       id="path1053"
       d="m 0,0 c 3.795,0 6.958,-3.163 6.958,-6.957 v -46.168 c 0,-7.716 -4.554,-49.708 8.601,-49.708 0.126,0 0.253,0 0.505,0.126 11.384,0.885 9.234,13.407 9.234,21.502 V -6.957 C 25.298,-3.163 28.46,0 32.254,0 h 11.258 c 3.795,0 6.957,-3.163 6.957,-6.957 v -35.416 c 2.783,-2.657 4.933,-5.692 7.336,-8.728 2.024,-2.53 3.542,-4.68 3.542,-7.969 -0.126,-6.071 -7.336,-10.245 -10.878,-14.293 v -1.771 c 0,-22.514 -3.035,-52.238 -32.001,-52.238 -18.974,0 -33.393,10.372 -36.301,29.597 -1.266,7.969 -0.381,16.443 -0.381,24.539 v 2.53 c -4.301,3.162 -9.612,6.83 -9.612,11.763 0,4.047 2.656,6.325 5.311,8.981 1.393,1.644 2.785,3.035 4.301,4.553 v 38.452 c 0,2.023 0.633,3.541 1.771,4.68 1.265,1.518 3.289,2.277 5.186,2.277 z"
       style="fill:#ffad29;fill-opacity:1;fill-rule:nonzero;stroke:none"
       transform="matrix(1.3333333,0,0,-1.3333333,9956.6325,367.82307)"
       clip-path="url(#clipPath1054)" />
    <path
       id="path1055"
       d="M 0,0 C 7.082,0 9.232,6.324 9.359,12.648 9.611,21.756 7.842,27.828 -2.15,27.828 H -8.603 V 0 Z m -15.559,-73.235 h -11.129 c -3.795,0 -6.958,3.161 -6.958,6.956 v 49.836 c -4.047,3.035 -8.854,6.577 -8.854,11.257 0,3.921 2.656,6.198 5.186,8.981 1.265,1.264 2.53,2.529 3.668,3.795 v 37.06 c 0,3.795 3.163,6.956 6.958,6.956 6.829,0 14.039,0.633 21.122,0.633 4.426,0 8.853,-0.254 13.028,-1.012 17.329,-3.162 26.056,-17.961 27.447,-34.278 0,-0.506 0.127,-1.138 0.127,-1.644 0,-0.633 0,-1.138 -0.127,-1.77 -0.885,-13.914 -5.944,-25.172 -16.948,-32.381 6.577,-13.787 13.28,-27.574 19.857,-41.235 1.645,-3.162 1.139,-7.842 -2.403,-9.487 -3.415,-1.643 -6.703,-3.288 -9.992,-4.806 -1.138,-0.632 -2.403,-0.885 -3.795,-0.885 -2.276,0 -4.553,1.011 -5.69,3.288 -7.843,16.064 -15.559,32.128 -23.275,48.191 h -1.266 v -42.499 c 0,-3.795 -3.161,-6.956 -6.956,-6.956"
       style="fill:#ffad29;fill-opacity:1;fill-rule:nonzero;stroke:none"
       transform="matrix(1.3333333,0,0,-1.3333333,10096.948,437.3068)"
       clip-path="url(#clipPath1056)" />
    <path
       id="path1057"
       d="m 0,0 v 9.992 c 0,3.669 3.163,6.831 6.958,6.831 h 31.747 c 3.795,0 6.957,-3.162 6.957,-6.831 v -40.981 c 0,-4.048 1.012,-9.992 -2.023,-13.155 -7.463,-7.462 -18.468,-10.498 -28.713,-11.383 -0.506,-0.127 -1.012,-0.253 -1.518,-0.253 -0.76,0 -1.644,0 -2.403,0.253 -26.943,2.529 -36.556,28.08 -38.198,53.25 -4.302,3.289 -9.994,6.83 -9.994,12.017 0,3.921 2.657,6.198 5.186,8.98 2.023,2.023 3.795,4.047 5.818,5.818 2.151,17.329 8.222,37.188 25.678,44.524 4.047,1.771 8.221,2.656 12.143,2.656 13.787,0 26.055,-9.613 33.898,-21.376 2.024,-3.163 0.632,-7.464 -2.53,-9.361 -3.288,-2.023 -6.451,-4.047 -9.74,-5.945 -1.011,-0.758 -2.277,-1.011 -3.414,-1.011 -2.404,0 -4.681,1.265 -6.072,3.415 -4.301,7.209 -8.095,9.993 -11.258,9.993 -10.372,0 -14.545,-29.977 -14.419,-40.097 0.126,-12.522 1.392,-38.704 15.179,-38.704 2.15,0 4.68,0.632 7.462,2.024 V -6.83 H 6.958 C 3.163,-6.83 0,-3.795 0,0"
       style="fill:#ffad29;fill-opacity:1;fill-rule:nonzero;stroke:none"
       transform="matrix(1.3333333,0,0,-1.3333333,10199.989,463.2788)"
       clip-path="url(#clipPath1058)" />
    <path
       id="path1059"
       d="m 0,0 h 36.681 c 2.15,0 3.669,-0.76 4.806,-1.897 l 0.379,-0.381 c 1.139,-1.138 1.898,-2.656 1.898,-4.806 v -10.245 c 0,-3.795 -3.162,-7.083 -7.083,-7.083 h -55.275 c -3.794,0 -7.083,3.288 -7.083,7.083 v 45.915 c -4.427,3.414 -10.878,7.209 -10.878,12.774 0,4.048 2.783,6.451 5.312,9.108 1.897,2.024 3.669,4.048 5.566,5.818 v 39.843 c 0,3.921 3.289,7.084 7.083,7.084 h 55.275 c 3.921,0 7.083,-3.163 7.083,-7.084 V 86.01 c 0,-3.921 -3.162,-7.082 -7.083,-7.082 H 0 V 55.653 h 29.092 c 3.794,0 7.083,-3.287 7.083,-7.082 V 38.326 c 0,-3.795 -3.289,-7.084 -7.083,-7.084 H 0 Z"
       style="fill:#ffad29;fill-opacity:1;fill-rule:nonzero;stroke:none"
       transform="matrix(1.3333333,0,0,-1.3333333,10312.478,505.2716)"
       clip-path="url(#clipPath1060)" />
    <path
       id="path1061"
       d="m 0,0 c 7.083,0 9.233,6.324 9.359,12.648 0.253,9.108 -1.516,15.18 -11.508,15.18 H -8.602 V 0 Z m -15.558,-73.235 h -11.131 c -3.793,0 -6.957,3.161 -6.957,6.956 v 49.836 c -4.047,3.035 -8.853,6.577 -8.853,11.257 0,3.921 2.656,6.198 5.186,8.981 1.264,1.264 2.529,2.529 3.667,3.795 v 37.06 c 0,3.795 3.164,6.956 6.957,6.956 6.831,0 14.04,0.633 21.124,0.633 4.426,0 8.853,-0.254 13.028,-1.012 17.329,-3.162 26.056,-17.961 27.447,-34.278 0,-0.506 0.127,-1.138 0.127,-1.644 0,-0.633 0,-1.138 -0.127,-1.77 -0.886,-13.914 -5.944,-25.172 -16.948,-32.381 6.577,-13.787 13.28,-27.574 19.857,-41.235 1.645,-3.162 1.139,-7.842 -2.403,-9.487 -3.414,-1.643 -6.703,-3.288 -9.992,-4.806 -1.138,-0.632 -2.403,-0.885 -3.795,-0.885 -2.276,0 -4.554,1.011 -5.691,3.288 C 8.096,-55.907 0.38,-39.843 -7.336,-23.78 h -1.266 v -42.499 c 0,-3.795 -3.161,-6.956 -6.956,-6.956"
       style="fill:#ffad29;fill-opacity:1;fill-rule:nonzero;stroke:none"
       transform="matrix(1.3333333,0,0,-1.3333333,10429.35,437.3068)"
       clip-path="url(#clipPath1062)" />
    <path
       id="path1063"
       d="M 0,0 C 7.084,0 9.234,6.324 9.36,12.648 9.613,21.756 7.843,27.827 -2.149,27.827 H -8.601 V 0 Z m -15.557,-73.235 h -11.131 c -3.794,0 -6.957,3.161 -6.957,6.956 v 49.836 c -4.047,3.035 -8.854,6.577 -8.854,11.256 0,3.922 2.657,6.198 5.186,8.982 1.265,1.264 2.53,2.529 3.668,3.794 v 37.06 c 0,3.795 3.163,6.957 6.957,6.957 6.831,0 14.04,0.633 21.124,0.633 4.426,0 8.853,-0.254 13.028,-1.012 17.329,-3.162 26.056,-17.961 27.447,-34.278 0,-0.506 0.127,-1.138 0.127,-1.645 0,-0.632 0,-1.137 -0.127,-1.77 -0.886,-13.913 -5.944,-25.171 -16.949,-32.38 6.578,-13.787 13.281,-27.575 19.858,-41.236 1.645,-3.161 1.139,-7.842 -2.403,-9.486 -3.415,-1.644 -6.703,-3.288 -9.992,-4.807 -1.139,-0.631 -2.404,-0.884 -3.795,-0.884 -2.276,0 -4.554,1.011 -5.692,3.288 -7.842,16.063 -15.557,32.127 -23.273,48.191 h -1.266 v -42.499 c 0,-3.795 -3.161,-6.956 -6.956,-6.956"
       style="fill:#1a1819;fill-opacity:1;fill-rule:nonzero;stroke:none"
       transform="matrix(1.3333333,0,0,-1.3333333,9242.7315,429.86667)"
       clip-path="url(#clipPath1064)" />
    <path
       id="path1065"
       d="m 0,0 c 0,-8.222 -2.782,-39.463 9.486,-41.74 0.759,-0.127 1.644,-0.253 2.404,-0.253 14.04,0 12.395,26.941 12.395,36.428 0,10.877 3.795,41.234 -12.142,42.373 C -1.897,35.669 0,9.866 0,0 m -25.044,8.348 v 0.38 l -0.254,-0.253 c 0.126,0 0.126,-0.127 0.254,-0.127 m 35.415,-74.5 c -29.598,2.656 -35.162,32.886 -35.796,58.183 -4.047,3.036 -8.853,6.578 -8.853,11.258 0,3.921 2.656,6.198 5.186,8.854 1.644,1.771 3.288,3.542 4.806,5.06 2.909,22.135 11.89,43.763 37.313,43.763 25.045,0 33.014,-22.008 35.543,-43.258 2.151,-2.276 4.048,-4.932 6.199,-7.589 1.897,-2.403 3.415,-4.554 3.289,-7.842 0,-4.933 -4.808,-8.475 -8.476,-11.889 -0.759,-24.793 -6.956,-54.011 -35.669,-56.54 -0.379,-0.126 -0.886,-0.126 -1.392,-0.126 h -0.758 c -0.506,0 -1.012,0 -1.392,0.126"
       style="fill:#1a1819;fill-opacity:1;fill-rule:nonzero;stroke:none"
       transform="matrix(1.3333333,0,0,-1.3333333,9341.8981,441.8412)"
       clip-path="url(#clipPath1066)" />
    <path
       id="path1067"
       d="m 0,0 v -26.562 c 6.956,10.624 13.913,21.377 20.743,32.128 1.392,2.024 3.668,3.415 6.071,3.415 1.139,0 2.277,-0.38 3.29,-1.012 3.035,-1.898 5.945,-3.668 8.853,-5.566 3.036,-1.897 4.554,-6.197 2.529,-9.359 -9.359,-14.293 -18.592,-28.586 -27.826,-42.879 11.257,-17.582 22.389,-35.164 33.645,-52.872 2.024,-3.162 0.633,-7.462 -2.403,-9.359 -3.035,-1.771 -6.198,-3.669 -9.233,-5.566 -1.012,-0.632 -2.151,-0.885 -3.289,-0.885 -2.402,0 -4.68,1.264 -6.071,3.414 C 17.582,-101.063 8.854,-87.022 0,-72.856 v -36.681 c 0,-3.795 -3.036,-6.83 -6.83,-6.83 h -11.005 c -3.669,0 -6.83,3.035 -6.83,6.83 v 48.444 c -4.048,2.909 -8.602,6.324 -8.602,10.878 0,3.921 2.657,6.197 5.187,8.855 1.139,1.264 2.276,2.402 3.415,3.668 V 0 c 0,3.668 3.161,6.831 6.83,6.831 H -6.83 C -3.036,6.831 0,3.668 0,0"
       style="fill:#1a1819;fill-opacity:1;fill-rule:nonzero;stroke:none"
       transform="matrix(1.3333333,0,0,-1.3333333,9465.5167,372.1896)"
       clip-path="url(#clipPath1068)" />
    <path
       id="path1069"
       d="m 0,0 v -26.562 c 6.957,10.624 13.914,21.377 20.744,32.128 1.391,2.024 3.668,3.415 6.071,3.415 1.139,0 2.278,-0.38 3.289,-1.012 3.036,-1.898 5.945,-3.668 8.855,-5.566 3.035,-1.897 4.553,-6.197 2.529,-9.359 -9.36,-14.293 -18.593,-28.586 -27.827,-42.879 11.258,-17.582 22.388,-35.164 33.646,-52.872 2.023,-3.162 0.631,-7.462 -2.404,-9.359 -3.036,-1.771 -6.197,-3.669 -9.233,-5.566 -1.012,-0.632 -2.15,-0.885 -3.289,-0.885 -2.403,0 -4.68,1.264 -6.071,3.414 -8.728,14.04 -17.456,28.081 -26.31,42.247 v -36.681 c 0,-3.795 -3.035,-6.83 -6.83,-6.83 h -11.004 c -3.668,0 -6.831,3.035 -6.831,6.83 v 48.444 c -4.047,2.909 -8.601,6.324 -8.601,10.878 0,3.921 2.657,6.197 5.187,8.855 1.138,1.264 2.276,2.402 3.414,3.668 V 0 c 0,3.668 3.163,6.831 6.831,6.831 H -6.83 C -3.035,6.831 0,3.668 0,0"
       style="fill:#1a1819;fill-opacity:1;fill-rule:nonzero;stroke:none"
       transform="matrix(1.3333333,0,0,-1.3333333,9576.1468,372.1896)"
       clip-path="url(#clipPath1070)" />
    <path
       id="path1071"
       d="m 0,0 c 3.795,0 6.956,-3.163 6.956,-6.958 v -46.167 c 0,-7.716 -4.554,-49.709 8.601,-49.709 0.127,0 0.254,0 0.506,0.126 11.383,0.885 9.234,13.407 9.234,21.502 v 74.248 c 0,3.795 3.162,6.958 6.957,6.958 h 11.257 c 3.795,0 6.957,-3.163 6.957,-6.958 v -35.415 c 2.782,-2.657 4.932,-5.692 7.336,-8.729 2.023,-2.529 3.542,-4.679 3.542,-7.968 -0.127,-6.072 -7.337,-10.245 -10.878,-14.293 v -1.771 c 0,-22.514 -3.036,-52.238 -32.001,-52.238 -18.974,0 -33.394,10.372 -36.302,29.597 -1.266,7.969 -0.379,16.443 -0.379,24.538 v 2.531 c -4.301,3.162 -9.613,6.83 -9.613,11.762 0,4.048 2.655,6.325 5.312,8.982 1.391,1.644 2.783,3.035 4.301,4.553 v 38.451 c 0,2.024 0.632,3.542 1.771,4.68 C -15.18,-0.76 -13.155,0 -11.258,0 Z"
       style="fill:#1a1819;fill-opacity:1;fill-rule:nonzero;stroke:none"
       transform="matrix(1.3333333,0,0,-1.3333333,9679.5284,360.38293)"
       clip-path="url(#clipPath1072)" />
    <path
       id="path1073"
       d="m 0,0 h 8.348 c 11.763,0.506 13.661,23.273 5.692,29.471 -2.657,2.024 -6.705,2.53 -10.879,2.53 H 0 Z m 0,55.527 c 7.082,0 13.28,1.392 13.027,10.879 C 12.774,76.272 8.474,77.283 0,77.41 Z M -27.069,77.41 c -3.795,0 -6.956,3.162 -6.956,6.957 v 10.119 c 0,3.793 3.161,6.956 6.956,6.956 7.21,0 16.316,1.012 25.172,1.012 7.715,0 15.303,-0.886 21.375,-3.921 20.238,-10.245 24.665,-36.681 11.384,-52.998 17.455,-16.064 19.353,-50.848 -2.91,-64.128 -8.474,-4.934 -18.973,-6.198 -29.597,-6.198 -8.854,0 -17.709,0.885 -25.424,0.885 -3.795,0 -6.956,3.162 -6.956,6.957 v 9.991 c 0,3.795 3.161,6.958 6.956,6.958 h 2.023 v 30.357 c -4.174,3.162 -9.36,6.703 -9.36,11.637 0,3.921 2.657,6.197 5.313,8.98 1.392,1.392 2.656,2.909 4.047,4.3 V 77.41 Z"
       style="fill:#1a1819;fill-opacity:1;fill-rule:nonzero;stroke:none"
       transform="matrix(1.3333333,0,0,-1.3333333,9851.2107,497.1576)"
       clip-path="url(#clipPath1074)" />
    <path
       id="path1075"
       d="m 0,0 c 3.795,0 6.958,-3.163 6.958,-6.958 v -46.167 c 0,-7.716 -4.554,-49.709 8.601,-49.709 0.127,0 0.253,0 0.505,0.126 11.384,0.885 9.234,13.407 9.234,21.502 V -6.958 C 25.298,-3.163 28.46,0 32.255,0 h 11.258 c 3.794,0 6.956,-3.163 6.956,-6.958 v -35.415 c 2.783,-2.657 4.933,-5.692 7.337,-8.729 2.023,-2.529 3.542,-4.679 3.542,-7.968 -0.127,-6.072 -7.337,-10.245 -10.879,-14.293 v -1.771 c 0,-22.514 -3.035,-52.238 -32,-52.238 -18.974,0 -33.394,10.372 -36.302,29.597 -1.266,7.969 -0.381,16.443 -0.381,24.538 v 2.531 c -4.3,3.162 -9.612,6.83 -9.612,11.762 0,4.048 2.656,6.325 5.312,8.982 1.392,1.644 2.784,3.035 4.3,4.553 v 38.451 c 0,2.024 0.634,3.542 1.772,4.68 1.264,1.518 3.289,2.278 5.186,2.278 z"
       style="fill:#1a1819;fill-opacity:1;fill-rule:nonzero;stroke:none"
       transform="matrix(1.3333333,0,0,-1.3333333,9949.1924,360.38293)"
       clip-path="url(#clipPath1076)" />
    <path
       id="path1077"
       d="M 0,0 C 7.083,0 9.232,6.324 9.359,12.648 9.612,21.756 7.842,27.827 -2.15,27.827 H -8.603 V 0 Z m -15.559,-73.235 h -11.129 c -3.795,0 -6.958,3.161 -6.958,6.956 v 49.836 c -4.047,3.035 -8.854,6.577 -8.854,11.256 0,3.922 2.656,6.198 5.186,8.982 1.265,1.264 2.53,2.529 3.668,3.794 v 37.06 c 0,3.795 3.163,6.957 6.958,6.957 6.83,0 14.039,0.633 21.123,0.633 4.426,0 8.853,-0.254 13.027,-1.012 17.329,-3.162 26.057,-17.961 27.448,-34.278 0,-0.506 0.126,-1.138 0.126,-1.645 0,-0.632 0,-1.137 -0.126,-1.77 -0.885,-13.913 -5.945,-25.171 -16.949,-32.38 6.577,-13.787 13.28,-27.575 19.857,-41.236 1.645,-3.161 1.139,-7.842 -2.402,-9.486 -3.416,-1.644 -6.704,-3.288 -9.993,-4.807 -1.138,-0.631 -2.403,-0.884 -3.795,-0.884 -2.276,0 -4.553,1.011 -5.69,3.288 -7.843,16.063 -15.559,32.127 -23.275,48.191 h -1.266 v -42.499 c 0,-3.795 -3.161,-6.956 -6.956,-6.956"
       style="fill:#1a1819;fill-opacity:1;fill-rule:nonzero;stroke:none"
       transform="matrix(1.3333333,0,0,-1.3333333,10089.508,429.86667)"
       clip-path="url(#clipPath1078)" />
    <path
       id="path1079"
       d="m 0,0 v 9.993 c 0,3.668 3.162,6.831 6.957,6.831 h 31.747 c 3.795,0 6.958,-3.163 6.958,-6.831 v -40.982 c 0,-4.047 1.011,-9.992 -2.024,-13.155 -7.463,-7.462 -18.468,-10.498 -28.713,-11.383 -0.506,-0.126 -1.012,-0.253 -1.518,-0.253 -0.759,0 -1.644,0 -2.402,0.253 -26.943,2.529 -36.556,28.08 -38.199,53.251 -4.302,3.289 -9.994,6.829 -9.994,12.016 0,3.921 2.657,6.198 5.186,8.98 2.024,2.024 3.795,4.048 5.818,5.819 2.151,17.329 8.222,37.187 25.678,44.523 4.047,1.771 8.222,2.657 12.143,2.657 13.787,0 26.056,-9.614 33.898,-21.377 2.025,-3.163 0.632,-7.463 -2.53,-9.361 -3.288,-2.023 -6.451,-4.047 -9.74,-5.944 -1.011,-0.759 -2.277,-1.012 -3.414,-1.012 -2.404,0 -4.681,1.266 -6.072,3.416 -4.3,7.209 -8.094,9.992 -11.258,9.992 -10.372,0 -14.545,-29.977 -14.418,-40.096 0.126,-12.522 1.391,-38.705 15.178,-38.705 2.151,0 4.68,0.632 7.462,2.024 V -6.83 H 6.957 C 3.162,-6.83 0,-3.794 0,0"
       style="fill:#1a1819;fill-opacity:1;fill-rule:nonzero;stroke:none"
       transform="matrix(1.3333333,0,0,-1.3333333,10192.551,455.83933)"
       clip-path="url(#clipPath1080)" />
    <path
       id="path1081"
       d="m 0,0 h 36.681 c 2.15,0 3.669,-0.759 4.806,-1.897 l 0.379,-0.38 c 1.139,-1.138 1.898,-2.657 1.898,-4.806 v -10.246 c 0,-3.795 -3.161,-7.083 -7.083,-7.083 h -55.274 c -3.795,0 -7.084,3.288 -7.084,7.083 v 45.915 c -4.427,3.414 -10.878,7.209 -10.878,12.775 0,4.047 2.783,6.451 5.313,9.107 1.896,2.024 3.668,4.048 5.565,5.818 v 39.843 c 0,3.922 3.289,7.084 7.084,7.084 h 55.274 c 3.922,0 7.083,-3.162 7.083,-7.084 V 86.011 c 0,-3.922 -3.161,-7.083 -7.083,-7.083 H 0 V 55.654 h 29.092 c 3.795,0 7.084,-3.288 7.084,-7.083 V 38.326 c 0,-3.795 -3.289,-7.084 -7.084,-7.084 H 0 Z"
       style="fill:#1a1819;fill-opacity:1;fill-rule:nonzero;stroke:none"
       transform="matrix(1.3333333,0,0,-1.3333333,10305.037,497.83213)"
       clip-path="url(#clipPath1082)" />
    <path
       id="path1083"
       d="M 0,0 C 7.082,0 9.232,6.324 9.359,12.648 9.612,21.756 7.842,27.827 -2.15,27.827 H -8.603 V 0 Z m -15.559,-73.235 h -11.13 c -3.794,0 -6.957,3.161 -6.957,6.956 v 49.836 c -4.047,3.035 -8.854,6.577 -8.854,11.256 0,3.922 2.656,6.198 5.186,8.982 1.265,1.264 2.529,2.529 3.668,3.794 v 37.06 c 0,3.795 3.163,6.957 6.957,6.957 6.831,0 14.04,0.633 21.123,0.633 4.427,0 8.854,-0.254 13.028,-1.012 17.329,-3.162 26.056,-17.961 27.448,-34.278 0,-0.506 0.126,-1.138 0.126,-1.645 0,-0.632 0,-1.137 -0.126,-1.77 -0.887,-13.913 -5.945,-25.171 -16.949,-32.38 6.577,-13.787 13.28,-27.575 19.857,-41.236 1.645,-3.161 1.139,-7.842 -2.403,-9.486 -3.414,-1.644 -6.703,-3.288 -9.992,-4.807 -1.138,-0.631 -2.403,-0.884 -3.795,-0.884 -2.276,0 -4.553,1.011 -5.69,3.288 -7.843,16.063 -15.559,32.127 -23.275,48.191 h -1.266 v -42.499 c 0,-3.795 -3.161,-6.956 -6.956,-6.956"
       style="fill:#1a1819;fill-opacity:1;fill-rule:nonzero;stroke:none"
       transform="matrix(1.3333333,0,0,-1.3333333,10421.911,429.86667)"
       clip-path="url(#clipPath1084)" />
    <path
       id="path1085"
       d="m 284.824,450.852 h 503.38 v -7.343 h -503.38 z"
       style="fill:#ffad29;fill-opacity:1;fill-rule:nonzero;stroke:none"
       transform="matrix(1.3333333,0,0,-1.3333333,9113.52,890.596)"
       clip-path="url(#clipPath1086)" />
    <path
       id="path1087"
       d="m 284.824,224.439 h 503.38 v -7.343 h -503.38 z"
       style="fill:#ffad29;fill-opacity:1;fill-rule:nonzero;stroke:none"
       transform="matrix(1.3333333,0,0,-1.3333333,9113.52,890.596)"
       clip-path="url(#clipPath1088)" />
  </g>
</svg>
